<?xml version="1.0" standalone="no"?>
<!DOCTYPE svg PUBLIC "-//W3C//DTD SVG 20010904//EN"
 "http://www.w3.org/TR/2001/REC-SVG-20010904/DTD/svg10.dtd">
<svg version="1.0" xmlns="http://www.w3.org/2000/svg"
 width="800.000000pt" height="800.000000pt" viewBox="0 0 800.000000 800.000000"
 preserveAspectRatio="xMidYMid meet">
<metadata>
Created by potrace 1.11, written by Peter Selinger 2001-2013
</metadata>
<g transform="translate(0.000000,800.000000) scale(0.100000,-0.100000)"
fill="#000000" stroke="none">
<path d="M3984 6502 c6 -10 -31 -39 -56 -44 -7 -2 -15 -6 -18 -9 -3 -3 -24
-18 -47 -32 -29 -18 -43 -23 -46 -14 -4 8 -6 6 -6 -3 -1 -9 -15 -24 -32 -34
-26 -15 -33 -16 -41 -5 -8 11 -9 10 -5 -3 4 -12 -5 -23 -29 -37 -20 -12 -40
-19 -45 -16 -5 4 -9 2 -9 -3 0 -14 -99 -74 -110 -67 -6 4 -9 1 -8 -7 2 -7 -5
-12 -14 -12 -10 1 -15 -3 -11 -9 4 -6 0 -8 -10 -4 -10 4 -16 2 -14 -6 1 -7 -5
-12 -13 -12 -8 0 -24 -8 -34 -17 -36 -33 -206 -129 -216 -123 -6 4 -9 1 -8 -7
2 -8 -6 -13 -18 -12 -16 0 -20 -4 -16 -15 4 -11 1 -13 -13 -7 -11 4 -16 4 -12
0 10 -11 -71 -57 -85 -48 -6 4 -8 3 -4 -4 5 -9 -112 -84 -222 -141 -15 -8 -29
-17 -32 -20 -17 -22 -151 -90 -167 -85 -13 4 -14 3 -5 -4 10 -7 5 -14 -23 -31
-20 -12 -41 -18 -47 -15 -6 4 -8 3 -5 -3 4 -5 -6 -16 -21 -24 -15 -8 -33 -20
-41 -27 -7 -7 -21 -10 -29 -7 -9 3 -13 3 -9 -1 7 -7 -74 -64 -91 -64 -4 0 -17
-7 -27 -15 -37 -28 -95 -64 -95 -59 0 3 -17 -8 -37 -23 -20 -15 -33 -21 -28
-13 5 8 -4 3 -20 -12 -15 -16 -34 -28 -41 -28 -8 0 -14 -4 -14 -10 0 -5 -4
-10 -10 -10 -5 0 -32 -14 -60 -31 -27 -17 -54 -28 -60 -24 -6 4 -9 1 -8 -7 2
-7 -5 -12 -14 -12 -10 1 -16 -2 -13 -6 5 -7 -65 -50 -78 -47 -5 1 -13 -6 -18
-15 -6 -10 -14 -18 -19 -18 -5 0 -24 -10 -43 -23 -24 -17 -33 -29 -30 -45 1
-12 -2 -22 -8 -22 -8 0 -8 -4 -2 -12 10 -14 10 -79 -1 -96 -3 -6 -2 -13 4 -17
6 -4 8 -11 4 -16 -3 -5 -10 -6 -16 -3 -7 4 -8 2 -4 -5 4 -6 10 -9 14 -7 4 2 7
-84 7 -192 0 -165 -2 -198 -15 -204 -13 -6 -13 -7 0 -7 13 -1 15 -25 15 -156
0 -131 -2 -155 -15 -156 -13 0 -13 -1 0 -7 17 -8 22 -122 5 -134 -7 -5 -7 -8
0 -8 6 0 10 -46 10 -118 0 -66 -4 -120 -10 -124 -7 -5 -7 -8 0 -8 6 0 10 -18
10 -40 0 -29 -4 -40 -15 -41 -13 0 -13 -1 0 -7 11 -5 15 -24 15 -77 0 -38 -4
-73 -10 -77 -7 -5 -7 -8 0 -8 6 0 10 -28 10 -65 0 -37 -4 -65 -10 -65 -7 0 -7
-3 0 -8 6 -4 10 -57 10 -122 0 -65 -4 -118 -10 -122 -7 -5 -7 -8 0 -8 6 0 10
-18 10 -40 0 -29 -4 -40 -15 -41 -13 0 -13 -1 0 -7 11 -5 15 -24 15 -77 0 -38
-4 -73 -10 -77 -6 -5 -5 -8 3 -8 7 0 11 -4 8 -8 -6 -11 -8 -57 -4 -145 2 -40
-1 -67 -7 -67 -5 0 -3 -5 5 -10 12 -8 12 -10 -5 -10 -15 0 -17 -2 -6 -9 10 -7
14 -36 14 -117 1 -116 1 -118 57 -148 19 -10 40 -24 45 -31 6 -7 19 -14 29
-16 21 -4 35 -29 16 -29 -6 0 -9 4 -6 9 4 5 -4 7 -16 3 l-22 -5 24 -9 c14 -5
28 -4 36 3 10 8 14 8 14 0 0 -6 5 -10 11 -8 6 1 18 -9 27 -23 14 -22 15 -23 1
-13 -9 7 -19 10 -23 6 -4 -4 -4 1 -1 12 6 19 6 19 -6 1 -9 -15 -9 -20 5 -28 9
-5 16 -14 16 -19 0 -6 -5 -7 -12 -3 -6 4 -8 3 -4 -4 3 -6 -3 -14 -15 -17 -11
-4 -18 -9 -16 -12 3 -2 15 1 27 7 16 9 25 9 36 0 7 -7 11 -16 8 -21 -3 -5 0
-9 6 -9 7 0 9 8 5 21 -6 18 -5 19 14 7 12 -7 16 -15 10 -19 -7 -4 -4 -9 6 -13
9 -3 13 -11 9 -17 -4 -8 -3 -9 4 -5 7 4 12 2 12 -3 0 -6 -8 -11 -17 -11 -15 0
-16 -2 -3 -10 19 -12 32 8 24 35 -6 19 -5 19 11 4 14 -14 15 -21 5 -39 -8 -15
-9 -25 -2 -32 6 -6 8 -17 5 -24 -3 -8 -1 -14 4 -14 13 0 12 33 -1 42 -13 8 21
37 43 38 11 0 10 -4 -4 -13 -21 -16 -11 -42 12 -33 10 4 13 2 10 -8 -4 -11 -1
-13 10 -9 12 5 14 3 8 -8 -8 -12 -6 -12 8 0 10 8 21 10 25 6 4 -4 1 -10 -5
-12 -7 -3 -13 -9 -13 -15 0 -6 6 -6 15 2 12 10 16 9 21 -6 4 -11 9 -23 12 -28
3 -5 -2 -7 -11 -3 -10 3 -17 2 -17 -3 0 -14 24 -12 38 2 10 10 15 10 23 -2 8
-11 9 -9 3 10 -6 22 -5 23 9 12 9 -8 13 -21 10 -30 -4 -13 -2 -12 10 3 15 19
16 19 22 2 5 -11 14 -16 25 -12 11 3 17 0 17 -10 0 -11 -7 -14 -21 -9 -17 4
-18 3 -6 -5 8 -6 15 -17 15 -25 0 -9 3 -16 8 -16 4 0 12 0 17 0 6 0 10 7 10
15 0 8 5 15 11 15 5 0 7 -4 4 -10 -3 -6 2 -7 12 -4 13 4 12 1 -4 -12 -13 -9
-23 -21 -23 -26 0 -5 10 0 22 12 24 22 32 21 22 -4 -3 -9 -11 -13 -17 -9 -6 4
-7 1 -2 -7 6 -10 11 -9 21 4 14 20 21 11 18 -21 0 -12 2 -20 7 -18 4 3 9 2 12
-2 2 -5 2 -3 1 4 -2 6 0 14 4 16 4 2 1 2 -7 0 -8 -2 -11 2 -8 11 3 7 0 19 -6
25 -8 8 -8 11 1 11 7 0 15 -7 18 -15 4 -8 12 -15 19 -15 8 0 13 -9 12 -20 -1
-11 -5 -20 -9 -20 -4 0 -8 -4 -8 -10 0 -5 6 -9 13 -7 6 1 11 -4 10 -10 -2 -7
2 -13 7 -13 12 0 13 13 3 24 -11 11 -10 30 2 38 18 14 28 8 14 -8 -11 -13 -10
-18 5 -26 15 -8 16 -12 5 -19 -11 -7 -11 -9 -1 -9 7 0 15 7 18 15 8 21 24 19
24 -4 0 -10 7 -25 17 -32 15 -13 15 -12 5 8 -16 28 -15 29 8 29 11 0 20 -4 20
-8 0 -4 -5 -8 -11 -8 -8 0 -8 -5 1 -15 10 -12 9 -16 -4 -21 -20 -8 -21 -21 -1
-21 8 0 12 4 9 8 -2 4 0 10 6 14 10 6 13 -5 11 -35 0 -10 1 -11 5 -2 3 6 10 9
15 6 6 -3 5 -11 -2 -20 -10 -12 -9 -13 5 -8 10 4 15 12 12 20 -3 7 2 18 11 26
14 11 15 10 10 -12 -4 -14 -4 -19 -1 -12 3 6 10 9 15 6 6 -4 6 -11 -1 -19 -7
-8 -10 -22 -7 -32 4 -14 5 -13 6 5 0 13 5 21 10 17 6 -3 8 -14 6 -25 -3 -14 1
-17 12 -13 12 5 14 3 8 -7 -6 -9 -4 -11 5 -5 10 6 10 10 -3 20 -13 9 -14 14
-4 24 9 9 7 16 -13 31 -14 10 -22 22 -18 25 4 4 18 -4 32 -19 17 -16 32 -23
43 -19 10 4 14 2 9 -5 -3 -6 -1 -14 5 -18 8 -4 9 -3 5 4 -4 7 -1 12 6 12 10 0
9 3 -2 11 -13 9 -12 10 3 5 9 -3 24 -9 34 -13 9 -4 14 -2 10 3 -3 6 -1 16 5
24 8 12 9 11 4 -3 -5 -15 -2 -17 17 -12 17 5 18 4 7 -4 -8 -5 -11 -13 -7 -17
3 -4 14 -1 22 6 13 11 16 11 13 -1 -2 -8 3 -13 10 -12 6 2 12 -2 12 -7 0 -6
-5 -10 -11 -10 -5 0 -8 -4 -4 -9 3 -5 16 -8 29 -5 14 2 31 -2 38 -8 7 -7 20
-14 28 -16 8 -2 22 -10 31 -18 9 -8 19 -11 23 -7 4 5 7 3 6 -2 -4 -20 0 -35
10 -35 5 0 7 8 3 18 -3 9 -3 14 1 10 6 -5 9 -14 15 -48 1 -3 5 1 10 9 5 7 14
10 20 7 6 -4 8 -12 5 -18 -4 -6 1 -8 15 -3 13 4 21 2 21 -5 0 -6 -4 -8 -10 -5
-6 4 -10 -5 -10 -21 0 -15 -3 -24 -7 -20 -4 4 -8 15 -8 24 0 9 -5 17 -12 17
-6 0 -15 3 -19 7 -4 4 -13 3 -21 -3 -13 -11 -19 0 -13 26 1 5 -2 7 -5 3 -4 -4
-17 -2 -29 4 -11 7 -25 12 -29 13 -4 0 -11 6 -16 13 -5 8 -12 14 -17 15 -5 1
-8 6 -6 11 2 5 -4 6 -12 3 -9 -4 -18 -2 -21 3 -3 5 -14 7 -25 5 -11 -2 -23 1
-26 7 -5 7 -2 8 7 4 8 -4 6 -1 -4 7 -14 11 -15 16 -5 21 7 3 4 4 -7 3 -12 -1
-19 3 -17 11 2 10 -2 10 -19 1 -17 -9 -20 -8 -14 3 3 7 -1 4 -10 -7 -13 -16
-19 -18 -35 -7 -24 15 -30 15 -30 1 0 -5 5 -7 10 -4 6 3 13 0 16 -8 3 -9 17
-13 40 -11 24 2 32 -1 27 -9 -4 -7 0 -7 10 1 14 12 16 11 16 -10 1 -51 3 -58
11 -53 4 3 11 -1 14 -7 3 -7 3 -3 0 10 -5 21 -4 22 15 10 24 -15 34 -35 21
-43 -6 -4 -10 -11 -10 -17 0 -5 8 0 18 12 l19 23 15 -21 c8 -12 17 -20 20 -17
10 11 48 14 53 4 6 -9 -8 -13 -33 -10 -9 2 -7 -4 5 -17 17 -18 18 -18 27 0 5
10 14 18 19 18 6 0 7 -3 4 -6 -3 -4 -2 -15 4 -25 6 -12 6 -19 0 -19 -5 0 -12
5 -14 10 -3 6 -4 5 -3 -2 1 -7 12 -14 24 -14 12 -1 29 -7 38 -15 13 -10 18
-11 21 -2 2 7 11 9 19 6 13 -5 13 -7 2 -15 -10 -8 -10 -9 2 -5 8 2 13 12 12
22 -3 16 -2 17 12 6 22 -18 1 -44 -30 -38 -19 3 -21 0 -17 -22 2 -14 7 -28 10
-31 3 -3 3 5 0 18 -4 17 -1 22 13 22 11 0 22 4 25 10 3 5 12 10 18 10 7 -1 2
-9 -10 -19 -13 -11 -23 -25 -23 -33 0 -10 2 -10 9 1 5 8 19 16 32 18 18 3 20
1 10 -11 -9 -11 -9 -16 0 -22 7 -4 18 1 26 11 14 20 46 30 41 13 -2 -5 -7 -9
-12 -8 -9 2 -26 -19 -26 -32 0 -5 5 -8 11 -8 5 0 7 5 3 12 -5 8 -2 9 10 5 10
-4 15 -3 11 3 -3 6 1 13 9 16 9 3 13 11 9 17 -3 6 -1 7 6 3 8 -6 9 -12 2 -20
-6 -7 -8 -16 -4 -19 3 -4 -1 -9 -10 -13 -9 -3 -23 -18 -32 -32 -16 -26 -16
-27 2 -6 22 25 73 59 73 49 0 -4 -8 -13 -17 -20 -14 -11 -15 -17 -5 -36 11
-23 11 -23 5 6 l-6 30 23 -23 c12 -13 25 -20 28 -17 4 4 -1 11 -11 16 -9 6
-17 15 -17 21 0 6 7 5 17 -3 14 -12 16 -12 9 0 -6 9 -5 12 5 9 8 -3 13 -14 12
-24 -1 -11 0 -13 3 -6 5 10 10 8 21 -7 15 -22 61 -52 49 -32 -4 6 -2 11 3 11
6 0 11 -7 11 -15 0 -11 7 -14 25 -11 13 3 27 0 30 -5 6 -9 -8 -13 -33 -10 -6
1 -20 -3 -30 -9 -14 -8 -12 -9 11 -4 23 5 26 4 21 -12 -5 -18 -5 -18 9 -2 13
17 15 17 33 -3 21 -23 24 -44 11 -74 -8 -19 -7 -19 7 -2 8 11 12 26 8 35 -5
14 -3 15 10 5 12 -11 17 -9 26 12 6 14 17 25 23 25 7 0 6 -9 -4 -24 -15 -22
-15 -25 0 -30 12 -5 13 -9 3 -21 -20 -24 0 -17 22 8 15 17 18 18 14 5 -5 -16
4 -23 27 -19 4 0 7 -8 7 -18 0 -11 5 -23 11 -27 8 -4 9 1 4 17 -7 23 -7 23 11
6 19 -18 18 -19 0 -33 -16 -11 -17 -14 -4 -14 24 0 31 30 12 51 -10 11 -12 19
-6 19 6 0 18 -10 26 -21 13 -20 13 -25 0 -53 -14 -28 -14 -29 1 -12 9 12 15
15 15 7 0 -7 9 -3 19 10 19 23 20 24 38 5 17 -18 17 -18 -2 -12 -14 4 -24 -1
-34 -17 -14 -22 -14 -22 8 -3 19 17 21 17 21 3 0 -10 -6 -17 -12 -17 -9 0 -9
-3 1 -9 10 -7 24 -3 43 10 27 20 39 14 17 -8 -7 -7 -6 -12 5 -16 10 -4 13 -1
9 9 -3 7 0 14 5 14 6 0 14 -9 17 -20 7 -24 13 -24 39 -5 26 20 37 19 29 -2 -5
-15 -3 -14 11 2 13 16 15 17 10 3 -4 -12 -1 -18 9 -18 19 0 49 -39 40 -53 -3
-5 7 -1 23 9 26 18 28 18 21 1 -9 -23 0 -22 13 3 8 15 8 20 -1 18 -6 -2 -13 2
-16 9 -2 6 4 10 14 9 12 -2 18 -12 18 -28 0 -18 4 -24 19 -23 29 2 31 21 4 39
-17 12 -19 16 -6 16 9 0 20 -5 23 -10 4 -6 11 -7 17 -4 7 5 9 1 5 -9 -3 -8 0
-20 7 -27 10 -8 15 -7 20 5 6 16 -9 55 -20 55 -3 0 -2 -6 2 -12 5 -10 3 -10
-7 0 -11 10 -11 14 -1 21 10 6 9 11 -4 22 -16 12 -17 12 -12 -2 3 -9 2 -22 -3
-30 -5 -8 -9 -9 -9 -3 0 14 -30 14 -30 0 0 -6 -5 -4 -10 4 -7 11 -10 11 -10 2
0 -7 -5 -10 -11 -6 -15 9 9 23 33 19 20 -4 22 3 8 25 -5 8 -10 10 -10 4 0 -7
-7 -14 -14 -17 -11 -4 -13 -1 -10 11 3 9 -3 4 -12 -13 -10 -16 -18 -38 -19
-47 -2 -25 -11 -32 -18 -13 -4 8 -2 15 4 15 6 0 8 4 4 9 -3 5 -1 12 4 16 6 3
8 12 5 20 -4 8 -10 13 -14 10 -5 -3 -10 0 -12 7 -3 7 -7 5 -11 -6 -4 -9 -3
-15 1 -12 4 2 14 0 22 -6 13 -8 12 -9 -1 -5 -13 4 -15 1 -11 -15 3 -15 1 -19
-7 -14 -6 4 -9 11 -6 16 7 12 -30 32 -40 22 -5 -4 -5 -1 0 6 6 11 3 12 -14 3
-12 -7 -20 -8 -19 -4 2 4 -1 8 -7 8 -5 0 -9 -4 -7 -11 1 -6 -5 -11 -13 -11
-19 0 -19 11 0 30 13 13 10 17 -18 28 -32 14 -38 16 -59 18 -6 0 -8 4 -5 7 3
4 2 15 -3 25 -7 12 -6 20 2 25 7 5 8 3 4 -5 -5 -8 -3 -11 5 -9 8 1 14 -2 14
-7 0 -6 -3 -9 -7 -8 -4 2 -5 -4 -1 -12 4 -12 9 -13 18 -5 9 8 19 8 32 1 10 -5
27 -13 38 -16 13 -5 15 -9 7 -12 -6 -3 -10 -9 -6 -14 3 -5 14 -4 27 2 12 7 19
8 15 4 -4 -4 -1 -14 7 -21 16 -16 29 -19 20 -4 -3 6 0 11 7 11 7 1 20 2 28 3
8 0 14 7 12 14 -1 8 2 11 8 7 6 -3 8 -10 5 -15 -2 -4 10 -8 28 -7 17 0 38 -2
45 -4 14 -4 26 11 36 44 5 17 8 17 37 1 22 -11 34 -13 42 -5 8 8 6 11 -6 11
-9 0 -17 5 -17 10 0 18 11 11 46 -26 26 -30 33 -33 33 -18 1 38 5 53 12 49 4
-3 10 2 13 11 4 12 1 14 -13 9 -22 -7 -37 10 -20 21 8 5 9 3 4 -6 -6 -10 -4
-12 9 -7 29 11 39 -3 21 -29 -8 -13 -11 -24 -5 -24 5 0 17 11 26 25 9 14 23
24 32 23 8 -2 17 3 20 11 3 8 0 11 -7 7 -6 -4 -11 -2 -11 3 0 16 16 13 30 -4
13 -15 30 -12 30 6 0 6 -4 8 -9 5 -5 -3 -20 9 -34 27 -17 23 -21 34 -12 34 8
0 12 -4 9 -9 -3 -4 0 -8 5 -8 6 0 11 -7 11 -17 0 -9 3 -13 7 -10 3 4 13 1 20
-5 12 -10 14 -8 11 8 -2 13 3 20 20 22 27 4 29 -14 2 -30 -23 -15 -26 -28 -7
-28 8 0 20 11 27 25 7 13 17 22 22 19 4 -3 8 2 8 11 0 9 -4 14 -9 10 -6 -3
-15 4 -21 16 -10 17 -9 20 1 14 9 -6 11 -3 6 9 -4 10 -3 15 4 11 5 -4 7 -14 4
-24 -3 -12 1 -17 15 -18 17 -2 18 1 10 17 -8 15 -6 21 10 30 13 7 20 7 20 0 0
-5 -7 -10 -15 -10 -9 0 -12 -6 -9 -15 4 -8 10 -15 16 -15 5 0 6 4 3 10 -3 6 1
7 10 4 10 -4 14 -1 12 7 -2 8 -2 11 0 6 3 -4 9 -4 14 -1 6 4 6 11 -1 19 -13
15 -4 39 10 30 5 -3 11 5 13 17 5 20 5 20 3 -2 -1 -15 -7 -24 -15 -22 -15 3
-10 -20 6 -25 6 -2 14 5 18 17 4 12 9 19 12 17 2 -3 0 -15 -7 -26 -14 -27 1
-27 18 0 10 15 11 24 3 32 -6 6 -11 15 -11 21 0 5 6 2 13 -9 10 -12 16 -14 21
-7 4 7 2 12 -3 12 -6 0 -11 5 -11 11 0 8 5 8 15 -1 11 -9 19 -10 28 -1 10 8
17 7 25 -1 9 -9 12 -9 12 -1 0 7 -4 15 -10 18 -5 3 -10 11 -10 18 0 6 7 2 16
-9 15 -18 15 -18 8 5 -4 16 -3 21 5 17 6 -4 11 -15 12 -24 0 -10 3 -12 5 -5 3
7 13 10 22 7 13 -4 12 -1 -4 13 -21 19 -21 20 -3 31 25 16 37 15 16 -1 -15
-11 -15 -14 2 -34 16 -19 20 -20 25 -7 3 8 2 13 -3 10 -5 -3 -11 0 -14 8 -4
10 1 12 16 9 18 -4 19 -3 7 6 -13 9 -12 11 4 11 13 0 16 -4 11 -17 -5 -10 -8
-26 -9 -35 0 -9 -5 -14 -11 -10 -5 3 -3 -3 5 -14 22 -29 24 -30 17 -12 -3 10
-2 20 3 23 6 4 10 3 11 -2 0 -4 2 -18 3 -31 2 -13 -4 -27 -13 -32 -9 -5 -11
-9 -6 -10 22 0 36 17 28 36 -6 16 -4 17 9 6 8 -7 23 -9 33 -6 13 5 14 9 3 15
-16 10 -20 51 -4 46 6 -2 10 -12 8 -22 -2 -10 1 -14 7 -10 6 3 11 14 11 23 1
15 2 15 15 -2 15 -20 50 -33 39 -15 -3 5 -9 7 -14 4 -5 -3 -11 4 -15 15 -5 16
-12 19 -28 14 -21 -6 -21 -6 -4 12 17 18 18 18 38 -6 15 -20 18 -21 12 -5 -6
17 -4 18 8 8 12 -10 19 -8 33 9 15 17 15 20 3 15 -9 -3 -21 0 -27 8 -9 11 -7
14 12 13 13 -1 29 -6 37 -12 11 -8 13 -8 7 2 -4 7 -2 12 5 12 7 0 9 3 6 7 -4
3 9 17 28 30 36 25 57 31 37 11 -7 -7 -12 -17 -12 -23 0 -5 7 -1 15 9 8 10 12
22 10 27 -3 4 -1 10 5 14 5 3 11 0 11 -7 1 -7 2 -19 3 -27 0 -8 9 -15 19 -17
10 -1 14 2 10 9 -4 7 0 8 13 3 15 -6 16 -5 7 5 -10 10 -15 9 -28 -1 -18 -15
-20 0 -2 19 10 11 9 12 -2 6 -11 -6 -13 -4 -8 9 4 10 7 20 7 22 0 2 5 4 11 4
5 0 7 -4 4 -10 -4 -6 1 -7 12 -3 16 6 16 5 4 -10 -9 -11 -10 -17 -2 -17 6 0
11 5 11 10 0 7 7 7 23 0 19 -9 20 -9 6 2 -9 7 -18 17 -20 23 -2 5 -10 9 -17 7
-10 -3 -10 1 0 17 14 22 30 28 25 10 -3 -16 28 -33 47 -26 13 5 15 11 6 26 -8
17 -7 20 10 18 14 -1 18 -6 15 -18 -3 -10 -1 -20 4 -24 7 -4 8 1 4 11 -5 12
-3 15 6 9 10 -6 11 -3 1 14 -6 12 -15 19 -21 16 -5 -4 -8 3 -6 14 5 33 14 34
27 1 12 -29 30 -41 30 -20 0 6 -4 10 -10 10 -5 0 -10 8 -10 18 1 14 4 13 20
-7 11 -13 20 -18 20 -13 0 6 -4 14 -10 17 -5 3 -10 11 -10 17 0 7 4 7 13 0 9
-8 19 -5 37 9 14 11 18 17 10 14 -11 -4 -16 2 -18 22 -1 26 -1 27 13 9 7 -10
18 -15 24 -12 6 4 19 2 30 -4 17 -9 19 -7 16 11 -3 15 0 19 11 15 8 -3 12 -2
9 3 -3 5 -1 12 5 16 5 3 10 1 10 -4 0 -6 5 -11 11 -11 8 0 8 4 2 13 -11 13
-13 47 -3 47 3 0 15 -7 26 -16 16 -13 16 -15 2 -10 -10 3 -18 1 -18 -4 0 -14
27 -12 36 2 4 6 2 14 -4 16 -7 2 -10 8 -7 12 3 5 12 7 19 4 8 -3 21 5 30 17 8
13 18 20 21 17 3 -3 -5 -19 -19 -35 -18 -22 -22 -33 -14 -44 8 -12 9 -12 5 1
-5 17 17 43 28 32 4 -4 6 -2 5 3 -7 31 0 38 20 20 29 -26 25 -10 -6 20 -14 14
-22 30 -19 35 7 12 26 14 24 3 -1 -5 -1 -15 0 -23 1 -11 4 -11 13 -2 17 17 33
15 18 -3 -10 -12 -9 -16 4 -21 9 -4 20 -4 23 0 4 3 -2 6 -12 6 -14 0 -15 3 -5
15 10 12 9 16 -4 21 -9 3 -14 10 -11 15 3 4 12 6 20 2 9 -3 15 1 15 10 0 24
15 28 36 11 18 -15 18 -15 -3 -11 -13 3 -23 1 -23 -5 0 -5 10 -8 23 -6 16 2
21 9 19 22 -3 18 -2 18 14 5 10 -7 15 -9 11 -2 -10 15 13 22 38 11 19 -9 19
-8 2 5 -16 13 -16 15 -1 21 23 9 26 8 19 -7 -4 -6 3 -2 14 11 11 13 17 30 14
38 -5 14 -3 14 15 3 18 -11 24 -11 34 0 11 11 9 12 -12 6 -22 -7 -23 -6 -11 8
7 9 17 14 22 11 5 -3 9 0 9 5 0 6 5 11 11 11 6 0 9 -7 6 -15 -4 -8 -1 -17 5
-21 6 -4 8 -3 5 3 -4 5 5 20 20 33 21 18 27 19 35 9 8 -11 9 -11 5 1 -2 8 3
21 10 28 8 8 11 23 7 34 -3 11 -2 18 3 15 12 -8 39 10 30 20 -5 4 -12 1 -17
-7 -9 -13 -10 -13 -10 0 0 13 -1 13 -11 0 -8 -12 -9 -10 -4 7 5 18 2 21 -19
19 -17 -2 -23 1 -19 10 6 15 23 19 23 6 0 -4 9 -8 19 -9 19 -2 20 1 8 60 -1 6
6 13 16 15 9 2 17 -1 17 -7 0 -6 -6 -8 -14 -5 -11 4 -13 0 -9 -16 l6 -22 20
21 c18 17 19 22 6 37 -12 15 -12 17 0 9 11 -6 13 -4 9 7 -5 11 0 15 15 14 16
-1 21 -7 19 -21 -3 -17 -2 -17 14 -4 14 11 16 11 10 0 -6 -9 -5 -12 3 -10 7 3
11 7 9 10 -2 3 5 16 14 31 12 19 14 28 5 37 -6 6 -7 11 -2 11 5 0 1 6 -8 13
-13 9 -14 16 -6 27 9 12 10 12 5 -4 -5 -14 -2 -17 11 -12 10 4 14 4 10 0 -4
-4 3 -14 14 -22 18 -13 23 -13 37 2 16 15 15 16 -7 14 -13 -2 -25 3 -27 10 -1
7 0 8 3 2 7 -15 26 -12 20 3 -6 15 21 50 46 60 15 5 15 10 5 26 -7 11 -16 17
-20 14 -5 -2 -4 -11 3 -19 8 -10 8 -14 0 -14 -6 0 -11 5 -11 11 0 5 -5 7 -11
4 -6 -4 -5 2 3 14 9 15 19 19 33 14 16 -5 18 -3 8 8 -10 12 -8 17 8 27 11 7
17 17 14 22 -9 14 -25 12 -22 -2 1 -7 -8 -14 -21 -16 -12 -2 -20 -7 -17 -12 3
-5 1 -11 -4 -14 -5 -4 -8 2 -7 11 2 10 13 20 25 23 12 3 22 8 22 13 -3 26 0
29 14 17 10 -8 15 -9 15 -2 0 6 -8 16 -17 21 -10 6 -13 11 -7 11 5 0 10 10 11
23 0 12 4 30 8 40 4 10 3 17 -4 17 -6 0 -11 -7 -11 -15 0 -8 -4 -15 -10 -15
-6 0 -5 10 2 25 6 13 14 22 19 19 4 -2 7 4 7 13 0 10 3 27 8 38 7 18 6 18 -9
7 -9 -8 -19 -22 -22 -33 -4 -10 -11 -19 -16 -19 -10 0 19 50 36 62 6 5 3 14
-9 25 -17 17 -18 17 -13 1 8 -22 -11 -34 -26 -19 -9 9 -8 11 3 6 11 -4 16 1
16 15 0 15 -5 19 -24 15 -14 -2 -22 -1 -18 2 11 12 45 13 51 3 3 -6 11 -10 17
-10 7 0 6 6 -2 15 -9 10 -9 15 -1 15 6 0 12 -6 12 -12 1 -7 2 -17 4 -23 1 -5
3 -16 3 -23 1 -7 6 -11 10 -8 10 6 9 36 -2 54 -4 6 -4 17 -1 22 4 7 -2 9 -18
5 -15 -4 -28 -2 -32 5 -5 9 -1 10 16 6 l24 -7 -22 20 c-13 10 -23 23 -23 27 0
4 5 3 12 -4 17 -17 33 -15 18 3 -7 8 -9 15 -5 15 4 0 0 12 -10 26 -16 25 -14
39 7 39 6 0 13 5 15 12 6 18 -28 9 -43 -12 -8 -10 -14 -14 -14 -8 0 6 7 16 16
24 14 11 14 13 0 21 -9 5 -16 13 -16 18 0 6 9 2 20 -7 22 -20 53 -26 48 -11
-2 6 -12 12 -22 14 -10 1 -21 6 -24 9 -4 4 2 5 12 3 10 -1 21 3 24 11 3 8 0
11 -7 7 -6 -4 -11 -2 -11 4 0 7 6 10 14 7 8 -3 17 1 20 8 8 23 -37 14 -52 -10
l-13 -20 7 20 c3 11 7 26 7 32 0 10 4 10 14 1 7 -6 16 -8 19 -5 3 3 -3 12 -15
19 -12 7 -21 17 -21 22 0 5 9 1 20 -9 21 -19 28 -7 8 13 -7 7 -9 12 -5 12 4 0
0 15 -8 33 -12 25 -13 28 -1 14 8 -11 17 -14 20 -8 4 5 -3 16 -14 24 -17 12
-18 15 -6 20 9 4 13 13 10 21 -3 8 -1 17 5 21 6 3 11 11 11 17 0 6 -6 6 -15
-2 -9 -7 -18 -10 -22 -7 -3 4 2 9 11 13 9 3 13 11 9 18 -4 6 1 5 10 -3 27 -22
21 6 -8 35 -30 30 -34 45 -5 19 22 -20 28 -8 8 14 -10 11 -10 13 0 7 7 -5 12
-1 12 9 0 9 -4 14 -9 11 -4 -3 -13 5 -18 17 -9 20 -8 23 11 25 17 1 18 -1 6
-8 -13 -9 -13 -11 0 -20 22 -14 27 -12 25 10 -2 27 -8 31 -44 32 -18 1 -34 5
-37 9 -3 5 2 6 10 3 19 -7 42 32 23 40 -6 3 -3 4 7 3 10 -1 21 4 24 12 3 8 0
11 -7 7 -6 -4 -11 -2 -11 4 0 7 6 10 14 7 8 -3 17 1 20 8 8 23 -37 14 -52 -10
l-13 -20 7 20 c3 11 7 26 7 32 0 10 4 10 14 1 7 -6 16 -8 19 -5 3 3 -3 12 -15
19 -12 7 -21 17 -21 22 0 5 9 1 20 -9 21 -19 28 -7 8 13 -7 7 -9 12 -5 12 4 0
0 15 -8 33 -12 25 -13 28 -1 14 8 -11 17 -14 20 -8 4 5 -3 16 -14 24 -17 12
-18 15 -6 20 9 4 13 13 10 21 -3 8 -1 17 5 21 6 3 11 11 11 17 0 6 -6 6 -15
-2 -9 -7 -18 -10 -22 -7 -3 4 2 9 11 13 9 3 13 11 9 18 -4 6 1 5 10 -3 27 -22
21 6 -8 35 -30 30 -34 45 -5 19 22 -20 28 -8 8 14 -10 11 -10 13 0 7 7 -5 12
-1 12 9 0 9 -4 14 -9 11 -4 -3 -13 5 -18 17 -9 20 -8 23 11 25 17 1 18 -1 6
-8 -13 -9 -13 -11 0 -20 22 -14 27 -12 25 10 -2 27 -8 31 -44 32 -18 1 -34 5
-37 9 -3 5 2 6 10 3 19 -7 42 32 23 40 -6 3 -3 4 7 3 10 -1 21 4 24 12 3 8 0
11 -7 7 -6 -4 -11 -2 -11 4 0 7 6 10 14 7 8 -3 17 1 20 8 8 23 -37 14 -52 -10
l-13 -20 7 20 c3 11 7 26 7 32 0 10 4 10 14 1 7 -6 16 -8 19 -5 3 3 -3 12 -15
19 -12 7 -21 17 -21 22 0 5 9 1 20 -9 11 -10 20 -13 20 -7 0 6 -5 14 -10 17
-6 4 -8 11 -5 16 4 5 -6 20 -20 33 -18 17 -22 26 -14 32 7 4 9 3 6 -3 -6 -10
19 -28 35 -25 4 1 5 -5 2 -13 -4 -10 -2 -13 8 -10 21 8 18 46 -4 39 -12 -4
-19 2 -24 20 -4 17 -11 23 -25 21 -10 -2 -22 1 -25 7 -5 7 -2 8 6 3 9 -5 11
-1 6 16 -3 13 -3 18 0 11 3 -6 10 -10 15 -7 5 4 6 -2 2 -11 -4 -12 -3 -15 5
-10 8 4 16 -3 22 -20 6 -15 12 -25 13 -23 2 2 9 13 17 23 14 18 13 19 -2 13
-13 -4 -15 -2 -11 10 5 12 3 14 -7 8 -9 -5 -7 0 3 16 19 26 22 43 7 34 -6 -4
-7 1 -3 11 4 10 2 15 -3 11 -13 -8 -41 10 -31 20 5 4 12 2 16 -6 6 -10 10 -9
15 4 8 23 8 27 -4 20 -5 -3 -10 -1 -10 5 0 7 6 10 14 7 8 -3 17 1 20 8 8 23
-37 14 -52 -10 l-13 -20 7 20 c3 11 7 26 7 32 0 10 4 10 14 1 7 -6 16 -8 19
-5 3 3 -3 12 -15 19 -12 7 -21 17 -21 22 0 5 9 1 20 -9 21 -19 28 -7 8 13 -7
7 -9 12 -5 12 4 0 0 15 -8 33 -12 25 -13 28 -1 14 8 -11 17 -14 20 -8 4 5 -4
17 -16 25 -12 9 -19 16 -15 16 4 0 0 12 -9 27 l-16 28 21 -25 c11 -14 21 -29
21 -33 0 -5 5 -5 11 -1 8 4 8 9 0 17 -6 6 -11 16 -11 22 0 5 9 -3 20 -20 23
-35 26 -26 5 15 -11 21 -20 28 -33 23 -14 -5 -15 -3 -4 8 9 10 15 10 24 1 7
-7 17 -12 23 -12 5 1 -1 10 -14 20 -14 12 -18 20 -10 20 11 0 11 2 -1 10 -12
8 -13 13 -2 30 13 22 3 27 -16 8 -8 -8 -12 -8 -12 -1 0 14 26 24 43 17 8 -3
14 2 14 11 0 9 -6 13 -16 10 -10 -3 -22 4 -29 16 -12 18 -11 24 7 43 22 23 30
49 9 28 -7 -7 -17 -12 -22 -12 -6 0 -2 7 8 15 10 8 23 12 27 9 5 -3 9 0 9 5 0
14 -15 14 -43 0 -21 -10 -21 -10 -3 5 11 9 24 16 29 16 4 0 5 5 2 11 -5 7 -15
4 -32 -6 -29 -19 -45 -9 -32 20 9 18 9 18 5 -3 -3 -15 0 -22 7 -19 7 3 11 10
9 16 -1 6 1 10 5 10 19 -3 33 2 33 11 0 5 -7 7 -15 4 -8 -4 -15 -1 -15 6 0 6
-6 8 -12 4 -10 -5 -10 -4 -2 5 18 20 53 21 64 3 5 -9 10 -12 10 -6 0 15 28 13
34 -3 3 -7 13 -13 21 -13 9 0 13 -5 10 -11 -5 -7 -15 -5 -31 5 -13 9 -27 16
-31 16 -4 0 -1 -5 7 -10 8 -5 10 -10 4 -10 -6 0 -11 -7 -11 -15 0 -8 5 -15 11
-15 6 0 4 -4 -4 -10 -8 -5 -11 -12 -7 -17 5 -4 12 -1 17 7 6 8 10 13 11 10 0
-3 2 -13 4 -22 2 -10 -1 -18 -6 -18 -6 0 -8 -4 -4 -9 3 -6 -3 -14 -12 -20 -10
-6 -13 -11 -6 -11 6 0 10 -9 8 -19 -3 -15 1 -18 13 -14 13 4 14 3 3 -5 -10 -7
-8 -13 10 -26 14 -10 18 -16 9 -16 -11 0 -11 -3 -2 -12 18 -18 15 -33 -3 -18
-9 7 -14 19 -11 27 4 9 1 11 -6 7 -7 -5 -8 -3 -3 6 5 8 4 11 -2 7 -5 -3 -9
-16 -8 -29 1 -13 -2 -31 -7 -42 -8 -14 -7 -17 3 -11 8 6 10 4 4 -5 -6 -9 -4
-11 6 -4 10 6 9 1 -3 -17 -9 -15 -13 -31 -8 -38 5 -9 9 -10 11 -2 2 6 10 1 18
-11 13 -21 13 -22 -2 -10 -13 11 -15 10 -13 -13 2 -14 -1 -28 -6 -31 -5 -3 -3
-13 4 -22 7 -9 8 -13 3 -10 -6 4 -12 -3 -12 -15 -2 -17 0 -19 7 -7 5 8 10 10
10 5 0 -6 -6 -17 -12 -24 -11 -11 -10 -12 1 -6 10 5 12 4 7 -4 -4 -6 -9 -24
-12 -39 -3 -20 -2 -23 6 -12 6 9 10 10 10 3 0 -6 -5 -15 -10 -18 -6 -4 -8 -11
-4 -16 3 -5 1 -15 -5 -22 -6 -8 -6 -18 -1 -27 6 -9 4 -20 -3 -30 -11 -13 -10
-13 8 0 18 13 19 13 10 0 -13 -18 -13 -79 -1 -99 6 -9 5 -12 -1 -8 -5 3 -9 -7
-9 -23 0 -16 4 -26 9 -23 5 3 5 -2 0 -13 -11 -22 -11 -34 0 -51 4 -6 3 -14 -3
-18 -5 -3 -10 -11 -10 -18 0 -6 7 -2 16 9 14 18 15 18 4 -3 -6 -13 -8 -23 -5
-23 3 0 1 -8 -4 -19 -8 -15 -7 -18 6 -17 9 0 18 -6 21 -14 4 -13 3 -13 -10 -2
-11 9 -18 10 -23 2 -3 -6 -10 -8 -15 -5 -4 3 -10 -1 -13 -9 -4 -9 2 -13 18
-13 17 0 22 4 17 16 -5 14 -4 14 12 2 19 -16 10 -31 -22 -34 -11 0 -18 -5 -15
-9 2 -5 14 -6 26 -3 15 4 18 3 9 -3 -8 -5 -13 -12 -13 -16 3 -24 -2 -28 -13
-8 -13 24 -13 24 -13 -7 0 -26 3 -29 19 -20 20 11 48 -3 48 -24 0 -5 -8 -3
-18 6 -17 15 -20 15 -38 1 -16 -13 -16 -15 -2 -10 10 3 20 0 24 -6 5 -7 2 -8
-6 -3 -9 5 -11 4 -6 -4 4 -6 11 -9 16 -6 4 3 7 -3 6 -12 0 -9 5 -18 12 -20 6
-3 12 0 12 7 0 6 -4 8 -10 5 -17 -10 -11 4 10 27 18 19 18 22 3 33 -17 12 -29
56 -15 54 28 -5 33 2 18 22 -16 23 -11 53 8 42 6 -3 2 3 -8 15 -17 19 -10 33
8 15 11 -11 46 -14 46 -4 0 6 -9 8 -20 6 -12 -2 -23 2 -27 11 -4 11 -9 12 -18
4 -7 -6 -16 -7 -18 -2 -3 4 3 13 13 20 16 10 21 9 29 -6 6 -10 11 -12 11 -4 0
7 -11 24 -24 37 -14 14 -21 27 -16 30 5 3 18 -7 29 -21 12 -15 21 -22 21 -16
0 6 -5 14 -11 18 -8 4 -7 9 2 16 11 8 10 9 -3 4 -10 -3 -20 -1 -23 4 -8 13 18
18 40 8 19 -9 19 -8 2 6 -11 8 -26 12 -35 8 -15 -5 -15 -4 -3 11 13 17 6 23
-21 18 -5 0 -8 4 -8 9 0 6 6 10 13 10 8 0 7 4 -3 10 -13 8 -13 10 2 10 9 0 20
5 24 11 4 8 -1 9 -17 4 -20 -7 -22 -6 -11 7 7 8 22 14 35 13 12 -1 14 0 4 2
-9 2 -15 9 -12 14 4 5 1 9 -5 9 -6 0 -8 5 -4 12 4 6 3 8 -4 4 -22 -14 -19 10
4 27 l25 19 -6 -29 c-5 -25 -4 -26 4 -5 7 13 7 31 1 45 -5 12 -9 16 -9 9 -1
-16 -30 -46 -37 -39 -10 10 38 66 52 60 8 -3 11 -10 7 -16 -4 -6 -1 -7 7 -2
10 6 9 11 -5 21 -14 11 -21 10 -39 -2 -22 -14 -36 -10 -36 8 0 5 4 7 8 4 5 -3
19 2 31 10 21 15 21 17 6 41 -16 24 -16 25 2 19 10 -3 25 -1 33 5 12 8 9 9
-10 4 -24 -6 -24 -5 -6 9 11 9 15 16 10 16 -6 0 -15 -5 -20 -10 -6 -6 -21 -12
-35 -15 -23 -4 -23 -4 -5 10 11 8 24 15 30 15 5 0 1 6 -9 14 -16 12 -17 14 -2
22 14 8 14 11 1 29 -8 11 -18 19 -22 17 -3 -2 -8 1 -10 7 -2 7 3 8 13 5 12 -5
16 -2 13 11 -2 10 3 20 10 22 8 3 10 -1 6 -14 -6 -16 -5 -16 7 -3 8 8 21 21
29 29 13 12 12 12 -5 3 -14 -7 -27 -6 -47 4 -32 17 -35 29 -10 43 9 5 16 13
14 18 -2 4 1 9 7 11 7 2 9 -4 5 -15 -5 -15 -4 -15 5 -3 7 11 6 19 -6 32 -14
15 -14 20 -2 35 9 11 10 14 2 9 -8 -4 -13 -2 -13 4 0 6 -4 8 -10 5 -5 -3 -10
-1 -10 4 0 6 6 11 13 11 9 0 9 2 0 8 -8 5 -2 12 18 21 17 7 28 15 26 18 -3 2
-19 -3 -37 -12 -42 -22 -52 -11 -11 12 30 17 40 33 22 33 -5 0 -11 -6 -14 -12
-2 -7 -8 -10 -12 -6 -12 12 16 40 34 33 11 -4 10 -1 -4 15 -10 11 -25 19 -34
18 -9 -2 -17 6 -19 17 -2 11 0 16 5 10 13 -17 40 -16 47 1 4 11 0 18 -14 21
-25 7 -26 19 -2 25 10 3 18 15 19 29 2 18 0 20 -7 9 -5 -8 -7 -17 -4 -21 2 -4
-5 -9 -15 -12 -15 -3 -19 0 -18 14 1 11 7 19 14 19 7 0 13 5 13 10 0 7 -7 7
-20 0 -11 -6 -18 -15 -15 -20 3 -5 -4 -8 -15 -7 -27 2 -25 15 5 29 22 10 23
13 10 31 -7 10 -11 25 -8 32 2 8 -6 19 -19 25 -21 10 -21 10 -5 -3 27 -22 20
-29 -13 -12 -16 9 -30 20 -30 26 0 6 4 8 9 5 4 -3 17 1 27 9 10 8 14 15 8 15
-5 0 -15 -5 -22 -12 -9 -9 -12 -9 -12 0 0 6 8 16 18 21 13 8 10 10 -16 7 -18
-2 -35 0 -37 4 -6 10 24 22 35 15 4 -3 6 3 3 14 -4 17 -6 17 -28 -3 -25 -22
-17 -50 11 -39 9 3 12 0 9 -9 -3 -7 -16 -15 -28 -16 -21 -1 -23 3 -23 45 -1
35 5 52 21 67 11 12 13 15 3 7 -16 -13 -23 -12 -53 2 -19 9 -35 22 -35 27 0 6
-5 8 -12 4 -8 -5 -9 -2 -4 11 6 16 4 16 -11 4 -9 -8 -14 -9 -10 -2 5 7 -1 13
-15 15 -12 2 -23 9 -26 17 -3 8 0 11 7 7 18 -11 34 4 21 19 -7 8 -8 20 -4 27
5 10 4 10 -6 1 -10 -10 -11 -15 -1 -27 10 -12 9 -15 -8 -13 -12 1 -21 4 -21 7
0 8 -82 62 -86 57 -2 -2 14 -14 36 -28 37 -23 59 -49 41 -49 -5 0 -12 7 -15
16 -3 8 -10 13 -15 10 -5 -3 -15 1 -22 10 -7 9 -30 23 -51 31 -23 9 -35 20
-31 26 5 8 8 7 11 -1 2 -7 8 -12 14 -12 6 0 4 8 -5 18 -10 10 -14 22 -10 27 5
4 2 5 -5 1 -7 -4 -10 -12 -7 -17 4 -5 0 -9 -9 -9 -18 0 -76 32 -76 43 0 5 5 5
10 2 6 -3 10 -1 10 4 0 6 -7 11 -15 11 -8 0 -15 -6 -15 -12 0 -7 -10 2 -21 20
-12 17 -25 32 -31 32 -5 0 -2 -7 7 -16 9 -9 14 -19 11 -22 -3 -3 -15 5 -25 17
-11 12 -23 22 -28 22 -4 0 -7 7 -7 15 2 12 -1 12 -13 2 -12 -10 -17 -9 -27 2
-6 8 -28 23 -49 32 -21 10 -40 24 -43 32 -3 8 -12 12 -19 9 -10 -3 -13 2 -10
18 2 12 0 29 -6 38 -9 14 -10 14 -5 -1 3 -10 3 -25 0 -33 -5 -12 -11 -11 -38
7 -17 12 -33 26 -34 30 -2 5 -8 6 -13 2 -5 -3 -12 2 -15 10 -3 9 -10 14 -14
11 -5 -3 -15 0 -22 7 -7 7 -27 21 -43 30 -17 10 -29 23 -27 29 2 9 0 9 -10 2
-10 -8 -18 -8 -31 2 -12 8 -14 15 -8 20 6 3 11 10 11 15 0 13 -29 20 -36 8 -4
-6 -3 -8 4 -4 6 3 13 2 17 -4 11 -17 -13 -11 -64 16 -35 20 -48 31 -44 43 5
13 3 14 -7 4 -10 -10 -19 -9 -42 5 -16 9 -26 22 -24 28 3 7 -3 10 -15 7 -11
-3 -19 0 -19 6 0 7 5 9 12 5 7 -4 8 -3 4 5 -6 9 -11 9 -21 1 -10 -8 -15 -8
-21 1 -5 8 -3 9 6 4 8 -5 11 -4 6 3 -4 6 -13 9 -21 5 -8 -3 -15 0 -15 7 0 6
-4 8 -10 5 -5 -3 -10 -2 -10 2 0 5 -16 15 -36 22 -19 7 -38 19 -40 26 -3 8
-11 12 -19 9 -17 -7 -29 27 -13 37 6 4 16 5 22 2 5 -3 6 -1 2 5 -5 8 -13 8
-31 0 -13 -6 -22 -15 -19 -20 3 -4 -12 3 -33 17 -38 27 -59 45 -34 30 10 -5
12 -4 7 4 -4 6 -12 9 -17 5 -6 -3 -17 2 -25 12 -9 11 -12 12 -8 4 9 -16 16
-20 -93 50 -51 32 -67 48 -40 37 8 -3 20 -1 28 3 10 7 7 9 -11 8 -14 -1 -30
-5 -36 -10 -7 -5 -14 -2 -18 7 -3 9 -10 14 -15 11 -9 -6 -61 41 -61 55 0 5 7
6 15 3 8 -4 15 -2 15 4 0 11 -25 10 -36 -1 -4 -3 -1 -13 6 -22 11 -13 10 -14
-3 -9 -9 3 -19 15 -23 26 -5 17 -8 18 -16 7 -7 -10 -8 -8 -5 9 4 19 3 21 -8
12 -11 -9 -21 -7 -44 9 -16 12 -34 21 -40 21 -6 0 -11 5 -11 10 0 6 -7 10 -16
10 -8 0 -12 5 -9 11 4 6 1 9 -8 7 -14 -3 -119 59 -125 74 -2 5 -9 5 -15 1 -7
-4 -8 0 -3 13 5 14 4 16 -5 7 -8 -8 -32 2 -100 42 -108 66 -153 90 -145 77z
m2338 -1506 c-3 -5 2 -7 11 -3 11 4 20 -1 27 -14 9 -16 7 -23 -11 -38 -20 -16
-19 -49 1 -36 5 3 11 1 14 -4 10 -15 -23 -6 -44 12 -11 9 -20 13 -20 7 0 -12
-40 -33 -48 -25 -3 3 4 8 16 12 12 3 22 10 22 15 0 5 -4 7 -9 4 -5 -3 -15 2
-22 11 -8 9 -9 14 -2 10 6 -4 13 -1 16 5 6 20 -4 39 -17 31 -6 -4 -6 0 2 9 7
9 9 18 5 20 -4 3 -3 3 4 2 7 -2 15 1 18 6 4 6 -4 10 -17 11 -21 0 -21 1 -4 8
21 8 66 -26 58 -43z m88 -195 c0 -6 -4 -12 -8 -15 -5 -3 -9 1 -9 9 0 8 4 15 9
15 4 0 8 -4 8 -9z m-127 -36 c4 -8 3 -16 -1 -19 -4 -3 -9 4 -9 15 -2 23 3 25
10 4z m-8 -45 c-3 -5 -12 -10 -18 -10 -7 0 -6 4 3 10 19 12 23 12 15 0z m22
-36 c-3 -3 -12 -4 -19 -1 -8 3 -5 6 6 6 11 1 17 -2 13 -5z m-27 -64 c0 -5 -2
-10 -4 -10 -3 0 -8 5 -11 10 -3 6 -1 10 4 10 6 0 11 -4 11 -10z m123 -26 c-7
-19 -22 -8 -20 16 1 14 5 16 13 9 7 -6 10 -17 7 -25z m-106 0 c-3 -3 -12 -4
-19 -1 -8 3 -5 6 6 6 11 1 17 -2 13 -5z m-17 -54 c0 -5 -2 -10 -4 -10 -3 0 -8
5 -11 10 -3 6 -1 10 4 10 6 0 11 -4 11 -10z m133 -23 c-3 -5 -10 -2 -15 7 -5
9 -14 13 -20 10 -7 -4 -8 -2 -4 4 5 9 12 9 26 0 10 -7 16 -16 13 -21z m7 -77
c0 -5 -5 -12 -10 -15 -8 -5 -8 -11 0 -20 8 -9 7 -14 -3 -18 -10 -4 -13 2 -11
19 1 13 -2 26 -7 30 -5 3 -7 9 -4 14 7 11 35 2 35 -10z m-113 4 c-3 -3 -12 -4
-19 -1 -8 3 -5 6 6 6 11 1 17 -2 13 -5z m115 -139 c-33 -18 -42 -14 -25 11 9
14 12 24 7 23 -21 -4 -28 2 -14 11 11 7 19 4 32 -13 16 -21 16 -22 0 -32z
m-122 -17 c0 -5 4 -6 10 -3 6 4 7 -1 3 -11 -5 -13 -3 -15 7 -9 9 6 11 4 5 -5
-6 -10 -13 -6 -27 14 -11 14 -25 23 -30 20 -7 -4 -8 -2 -4 4 8 13 36 5 36 -10z
m111 -35 c3 1 -1 -5 -9 -13 -11 -13 -14 -13 -22 0 -12 19 -2 34 14 21 7 -6 15
-10 17 -8z m-14 -50 c-4 -3 0 -15 10 -25 15 -17 15 -19 0 -36 -10 -10 -14 -22
-10 -27 5 -4 3 -6 -2 -2 -6 3 -10 25 -9 49 2 49 2 48 11 48 3 0 3 -3 0 -7z
m-90 -79 c-3 -3 -12 -4 -19 -1 -8 3 -5 6 6 6 11 1 17 -2 13 -5z m89 -41 c0
-10 5 -17 12 -15 6 1 12 -2 12 -8 0 -5 -6 -10 -12 -10 -10 0 -10 -2 0 -9 10
-6 10 -11 -3 -21 -16 -13 -15 -15 1 -27 11 -8 14 -16 8 -21 -5 -4 -8 -5 -7 -3
2 2 -3 11 -9 19 -15 17 -19 42 -8 42 10 0 8 20 -3 38 -5 6 -5 17 -2 22 9 15
13 12 11 -7z m-102 -89 c3 -8 2 -12 -4 -9 -6 3 -10 10 -10 16 0 14 7 11 14 -7z
m117 -81 c13 -16 12 -17 -3 -4 -10 7 -18 15 -18 17 0 8 8 3 21 -13z m-104 -29
c-3 -3 -12 -4 -19 -1 -8 3 -5 6 6 6 11 1 17 -2 13 -5z m113 -44 c0 -5 -2 -10
-4 -10 -3 0 -8 5 -11 10 -3 6 -1 10 4 10 6 0 11 -4 11 -10z m-109 -23 c-8 -8
-14 -7 -23 2 -11 10 -9 11 6 5 15 -6 17 -4 11 6 -6 9 -4 11 4 5 9 -5 10 -10 2
-18z m-11 -23 c0 -2 -7 -4 -15 -4 -8 0 -15 4 -15 10 0 5 7 7 15 4 8 -4 15 -8
15 -10z m101 -41 c13 -16 12 -17 -3 -4 -10 7 -18 15 -18 17 0 8 8 3 21 -13z
m-121 -13 c0 -5 -2 -10 -4 -10 -3 0 -8 5 -11 10 -3 6 -1 10 4 10 6 0 11 -4 11
-10z m27 -96 c-3 -3 -12 -4 -19 -1 -8 3 -5 6 6 6 11 1 17 -2 13 -5z m-13 -130
c3 -8 2 -12 -4 -9 -6 3 -10 10 -10 16 0 14 7 11 14 -7z m13 -110 c-3 -3 -12
-4 -19 -1 -8 3 -5 6 6 6 11 1 17 -2 13 -5z m4 -67 c-8 -8 -14 -7 -23 2 -11 10
-9 11 6 5 15 -6 17 -4 11 6 -6 9 -4 11 4 5 9 -5 10 -10 2 -18z m-11 -23 c0 -2
-7 -4 -15 -4 -8 0 -15 4 -15 10 0 5 7 7 15 4 8 -4 15 -8 15 -10z m-20 -54 c0
-5 -2 -10 -4 -10 -3 0 -8 5 -11 10 -3 6 -1 10 4 10 6 0 11 -4 11 -10z m27 -96
c-3 -3 -12 -4 -19 -1 -8 3 -5 6 6 6 11 1 17 -2 13 -5z m0 -240 c-3 -3 -12 -4
-19 -1 -8 3 -5 6 6 6 11 1 17 -2 13 -5z m-23 -42 c3 -5 -1 -9 -9 -9 -8 0 -12
4 -9 9 3 4 7 8 9 8 2 0 6 -4 9 -8z m16 -128 c0 -2 -7 -4 -15 -4 -8 0 -15 4
-15 10 0 5 7 7 15 4 8 -4 15 -8 15 -10z m0 -58 c0 -2 -6 -9 -14 -15 -11 -9
-16 -9 -22 0 -4 7 -3 9 4 5 6 -3 13 -2 17 4 6 10 15 14 15 6z m10 -61 c0 -8
-4 -16 -10 -20 -5 -3 -7 -13 -4 -23 5 -14 4 -14 -4 -2 -8 10 -8 18 0 27 7 9 7
17 -2 28 -11 13 -10 14 4 9 9 -3 16 -12 16 -19z m-35 -44 c3 -5 2 -12 -3 -15
-5 -3 -9 1 -9 9 0 17 3 19 12 6z m-12 -138 c-7 -2 -19 -2 -25 0 -7 3 -2 5 12
5 14 0 19 -2 13 -5z m-26 -38 c4 -4 3 -5 -4 -2 -6 4 -13 2 -15 -5 -3 -8 -6 -6
-10 4 -7 17 15 19 29 3z m-63 -41 c3 -8 2 -12 -4 -9 -6 3 -10 10 -10 16 0 14
7 11 14 -7z m-60 -20 c3 -8 2 -12 -4 -9 -6 3 -10 10 -10 16 0 14 7 11 14 -7z
m41 -2 c-3 -3 -11 0 -18 7 -9 10 -8 11 6 5 10 -3 15 -9 12 -12z m39 -10 c6
-10 -19 -43 -27 -35 -9 9 -9 23 1 22 19 -3 25 2 12 11 -9 6 -10 10 -3 10 6 0
14 -3 17 -8z m-4189 -46 c-18 -13 -18 -14 8 -9 15 3 24 10 21 15 -3 5 3 4 15
-4 12 -7 21 -16 21 -21 0 -4 5 -5 10 -2 6 3 13 -1 16 -9 3 -9 10 -13 15 -10 5
3 9 2 8 -3 -3 -20 2 -27 11 -13 8 13 10 12 10 -4 0 -11 3 -16 6 -13 10 9 46
-12 39 -24 -4 -5 -1 -9 4 -9 6 0 11 5 11 10 0 6 5 10 10 10 6 0 5 -8 -2 -19
-9 -15 -15 -17 -26 -9 -9 8 -16 8 -25 -1 -9 -10 -8 -11 8 -6 17 6 18 5 5 -5
-13 -10 -13 -11 3 -6 10 3 17 0 17 -7 0 -6 7 -2 15 10 14 20 55 22 55 2 0 -5
-6 -6 -13 -3 -8 3 -14 -1 -14 -8 0 -7 -4 -22 -8 -33 -7 -18 -6 -17 9 2 11 14
23 20 33 16 12 -5 14 -3 8 7 -5 9 -4 11 4 6 6 -4 9 -12 6 -17 -9 -13 9 -11 24
4 11 10 13 10 7 0 -4 -8 -1 -13 8 -13 9 0 21 -9 28 -20 7 -11 16 -20 21 -20 4
0 5 5 1 12 -4 7 -3 8 5 4 6 -4 8 -12 5 -18 -5 -7 -2 -9 8 -6 8 4 21 2 29 -3
12 -7 12 -9 0 -9 -31 0 8 -19 47 -22 15 -2 16 -18 1 -18 -5 0 -7 -5 -4 -10 5
-8 12 -7 22 1 12 10 16 10 24 -2 5 -8 9 -18 9 -24 0 -5 4 -4 9 4 6 9 11 10 15
2 4 -6 2 -11 -4 -11 -6 0 -8 -5 -4 -11 4 -8 9 -8 17 0 16 16 23 14 35 -14 6
-14 17 -25 23 -25 8 0 7 6 -2 18 -13 15 -12 16 3 4 13 -11 15 -19 8 -40 -10
-27 -9 -27 6 -5 15 21 50 22 37 0 -4 -6 0 -8 11 -4 11 5 15 3 10 -5 -5 -8 -2
-9 9 -5 22 8 28 -4 12 -26 -11 -15 -17 -16 -34 -7 -12 6 -21 8 -21 5 0 -10 5
-20 10 -18 3 1 6 -10 7 -25 l1 -26 -18 24 c-11 14 -18 34 -17 45 1 14 -3 19
-15 17 -10 -2 -18 1 -18 7 0 5 -12 8 -27 6 -36 -4 -47 3 -33 20 12 15 -3 30
-20 20 -6 -3 -13 1 -16 9 -3 9 -10 14 -14 11 -4 -3 -13 2 -20 10 -7 8 -18 15
-24 15 -7 0 -22 9 -33 20 -22 20 -22 20 -42 -8 -11 -15 -21 -22 -21 -15 0 6 7
19 16 27 9 9 11 16 4 16 -6 0 -9 4 -6 9 3 5 -1 14 -9 21 -12 10 -15 10 -15 0
0 -9 -5 -8 -18 3 -10 10 -21 15 -24 12 -3 -3 -11 1 -18 10 -12 14 -15 14 -33
-2 -13 -12 -19 -14 -16 -4 3 7 -6 27 -20 42 -26 29 -47 39 -36 17 4 -7 -2 -3
-13 10 -14 15 -22 18 -25 10 -2 -7 -8 -10 -12 -5 -5 4 0 13 10 21 18 13 18 13
0 24 -15 8 -22 6 -32 -6 -10 -13 -12 -14 -8 -2 2 8 -7 29 -21 45 -13 17 -22
22 -18 13 4 -11 1 -18 -6 -18 -6 0 -9 4 -5 9 6 11 -33 36 -50 33 -5 -1 -15 10
-22 24 -10 21 -10 24 2 14 16 -13 30 3 19 23 -4 6 1 4 12 -5 18 -17 18 -18 -1
-32z m4075 -11 c0 -2 -13 -8 -29 -13 -22 -8 -29 -8 -25 1 3 10 54 21 54 12z
m-57 -50 c-3 -9 -8 -14 -10 -11 -3 3 -2 9 2 15 9 16 15 13 8 -4z m37 -16 c0
-6 -4 -7 -10 -4 -5 3 -10 11 -10 16 0 6 5 7 10 4 6 -3 10 -11 10 -16z m-80 1
c0 -5 -4 -10 -10 -10 -5 0 -10 5 -10 10 0 6 5 10 10 10 6 0 10 -4 10 -10z m24
-46 c3 -9 11 -12 17 -8 15 9 30 -17 18 -32 -7 -8 -6 -15 2 -20 8 -4 9 -3 5 4
-4 7 -2 12 3 12 20 0 11 -18 -21 -42 -18 -14 -44 -24 -58 -23 -15 1 -30 -6
-38 -17 -7 -10 -17 -16 -22 -13 -4 3 -13 -2 -20 -10 -8 -10 -9 -15 -2 -15 6 0
9 -7 6 -15 -9 -23 -23 -8 -18 19 3 20 0 23 -26 22 -16 -1 -35 -7 -42 -15 -11
-12 -10 -13 4 -8 11 4 15 1 14 -11 -2 -9 -9 -18 -16 -20 -7 -3 -10 0 -6 6 3 6
1 14 -5 18 -7 4 -9 3 -5 -4 3 -6 2 -13 -3 -17 -6 -3 -7 -13 -4 -21 4 -11 0
-15 -13 -13 -27 3 -55 -11 -47 -25 3 -6 3 -8 -2 -4 -4 4 -14 3 -22 -3 -10 -9
-18 -8 -31 5 -22 19 -39 21 -23 3 6 -8 7 -17 3 -21 -4 -4 -7 -11 -7 -14 -1
-21 -28 -53 -40 -48 -8 3 -17 1 -20 -4 -10 -16 -28 -11 -22 5 7 18 -9 30 -19
14 -5 -8 -3 -9 7 -4 12 8 12 6 0 -9 -8 -9 -21 -14 -30 -11 -11 3 -10 0 3 -10
11 -8 14 -15 7 -15 -7 0 -10 -4 -6 -9 7 -12 -32 -34 -45 -26 -6 4 -13 -1 -16
-10 -6 -15 -8 -15 -24 0 -17 16 -19 15 -30 -4 -8 -16 -8 -21 2 -21 9 0 9 -3
-2 -10 -11 -7 -11 -10 -2 -10 7 0 10 -5 7 -10 -9 -15 -27 -1 -21 17 4 9 2 11
-6 7 -7 -5 -8 -2 -3 7 5 8 5 11 0 7 -4 -4 -15 -2 -24 4 -9 7 -8 3 4 -10 16
-20 17 -25 5 -32 -8 -5 -19 -5 -26 1 -12 9 -39 -12 -29 -23 3 -3 -1 -11 -10
-18 -11 -9 -12 -17 -4 -31 10 -20 3 -24 -25 -13 -9 3 -14 10 -11 14 3 5 1 12
-5 15 -6 4 -26 -10 -45 -30 -19 -20 -35 -34 -35 -30 0 3 -13 -3 -30 -15 -16
-12 -30 -19 -30 -15 0 3 -13 -8 -29 -24 -21 -22 -32 -26 -40 -18 -8 8 -11 7
-11 -4 0 -11 -2 -11 -9 -1 -6 10 -10 10 -20 -1 -9 -11 -8 -17 4 -27 8 -7 15
-18 15 -24 0 -6 -9 0 -20 14 -16 20 -19 21 -13 5 6 -18 5 -18 -10 -7 -14 12
-20 11 -44 -8 -30 -23 -38 -48 -21 -67 7 -9 7 -13 0 -13 -15 0 -27 22 -24 45
2 11 -1 16 -5 10 -13 -16 -33 -16 -27 0 4 8 10 13 14 10 5 -3 11 -1 15 5 4 6
11 8 16 5 5 -3 6 1 2 10 -4 13 -8 14 -14 4 -4 -8 -11 -10 -16 -6 -11 12 16 25
41 20 21 -5 21 -5 1 10 -14 11 -25 12 -38 5 -10 -5 -21 -7 -24 -5 -2 3 5 8 18
12 16 6 18 9 8 16 -7 4 -10 11 -6 15 3 4 15 -4 26 -17 11 -13 23 -20 27 -16 5
4 4 11 -1 15 -16 11 -41 47 -28 39 6 -4 13 -4 16 0 2 5 2 2 0 -6 -2 -8 2 -11
12 -7 9 3 14 2 10 -3 -10 -17 5 -36 29 -37 17 -1 23 3 22 14 -2 9 -9 18 -16
20 -7 3 -10 0 -6 -7 4 -6 2 -11 -4 -11 -6 0 -10 6 -9 13 3 27 -1 38 -13 31 -7
-4 -10 -4 -6 0 3 4 10 8 15 8 4 0 17 4 28 10 18 8 19 8 3 -5 -18 -15 -25 -33
-9 -23 5 4 12 0 14 -6 3 -8 6 -5 6 6 1 12 6 16 16 12 24 -9 17 11 -12 34 -22
16 -23 19 -5 10 15 -7 22 -7 22 0 0 5 5 10 11 10 8 0 9 -4 0 -13 -6 -8 -8 -17
-4 -20 10 -11 45 -8 38 3 -4 6 -11 7 -17 4 -7 -4 -8 -2 -4 4 4 6 13 9 21 6 9
-4 18 1 21 11 5 13 9 14 15 4 10 -16 42 -21 36 -6 -3 7 -10 11 -16 10 -6 -2
-11 2 -11 7 0 6 5 10 11 10 8 0 7 6 -2 18 -13 15 -12 16 3 4 14 -11 19 -10 33
10 l17 23 -8 -25 c-6 -22 -5 -23 9 -11 9 7 15 16 13 20 -3 4 12 16 32 26 20
11 40 24 44 30 7 9 12 -7 9 -27 -2 -15 22 -8 35 10 17 21 18 40 2 24 -15 -15
-28 -15 -28 0 0 6 3 8 7 5 3 -4 13 -2 20 5 11 9 16 9 23 -2 5 -9 5 -17 -1 -21
-7 -4 -4 -9 6 -12 11 -5 14 -3 9 6 -5 7 0 6 12 -3 18 -14 18 -14 2 6 -22 25
-23 38 -3 30 9 -3 19 3 26 15 8 16 13 18 24 9 11 -9 14 -7 12 9 -1 15 -6 20
-17 15 -8 -3 -21 -7 -28 -7 -7 0 -11 -5 -9 -12 6 -13 -38 -14 -50 -1 -5 5 -3
6 5 2 6 -4 19 0 28 8 9 9 19 14 24 11 5 -3 11 -1 15 5 7 12 45 14 45 3 0 -5
11 -9 25 -9 21 -2 24 1 14 12 -6 8 -14 12 -18 10 -4 -3 -11 -2 -17 2 -6 4 -2
15 10 26 15 15 18 16 13 3 -3 -8 0 -20 7 -26 11 -9 14 -6 14 15 0 15 7 31 16
36 14 8 15 13 5 26 -10 13 -8 13 7 -1 18 -17 18 -19 2 -28 -10 -6 -18 -15 -18
-21 0 -6 11 -3 25 6 17 11 25 13 25 5 0 -21 14 1 17 26 2 14 -1 25 -7 25 -5 0
-10 5 -10 11 0 8 6 7 17 -2 15 -12 16 -12 11 3 -4 9 0 24 8 35 14 17 15 17 7
-2 -5 -11 -8 -31 -8 -45 0 -14 -4 -29 -10 -33 -6 -5 -1 -7 10 -5 16 3 20 11
19 40 l-1 37 19 -22 19 -22 -6 23 c-4 13 -2 22 5 22 6 0 8 -4 5 -10 -3 -5 1
-10 9 -10 18 0 21 16 6 25 -11 7 -9 55 2 55 5 0 6 -12 3 -27 -6 -26 -5 -27 8
-10 14 17 15 17 19 0 3 -12 16 -19 34 -20 24 -2 26 -1 11 8 -9 6 -15 14 -12
20 4 5 1 9 -4 9 -6 0 -11 -5 -11 -12 0 -6 -2 -9 -5 -6 -3 3 -3 13 1 22 5 13 9
14 20 5 15 -12 19 0 7 17 -5 5 -1 2 8 -8 19 -20 35 -12 18 9 -8 8 -8 13 -1 13
6 0 12 -6 15 -12 2 -7 7 -10 11 -7 4 4 0 14 -9 23 -9 9 -11 16 -5 16 6 0 13
-7 16 -15 5 -12 10 -13 20 -4 7 6 17 8 23 5 5 -3 12 1 15 10 5 12 2 15 -11 10
-16 -6 -16 -6 -3 6 8 7 21 20 28 28 11 13 12 11 8 -13 -3 -19 -1 -27 7 -24 7
2 11 13 10 23 -1 10 0 13 3 6 3 -6 10 -9 15 -6 6 3 5 11 -2 20 -15 19 -2 18
18 -1 8 -8 18 -13 23 -10 5 3 -2 16 -16 30 -26 26 -30 40 -14 50 6 4 7 -1 3
-11 -4 -12 -3 -15 5 -10 8 5 10 1 5 -11 -6 -16 -5 -17 12 -3 10 8 16 10 12 4
-3 -6 0 -20 9 -30 14 -18 15 -18 9 4 -5 17 -2 22 12 22 15 0 16 2 3 10 -9 6
-10 10 -3 10 6 0 15 -4 18 -10 3 -5 11 -10 17 -10 6 0 3 9 -7 20 -10 11 -22
17 -28 13 -6 -3 -7 -1 -3 5 8 14 33 5 40 -14z m-59 -2 c-3 -3 -11 0 -18 7 -9
10 -8 11 6 5 10 -3 15 -9 12 -12z m-65 -17 c0 -19 -17 -28 -26 -14 -5 8 -3 9
6 4 10 -6 12 -3 8 13 -4 12 -2 20 3 16 5 -3 9 -11 9 -19z m-139 -32 c13 -16
12 -17 -3 -4 -10 7 -18 15 -18 17 0 8 8 3 21 -13z m47 -3 c-7 -11 -19 -22 -27
-25 -11 -4 -11 -2 -3 8 7 8 8 18 4 22 -4 5 -2 5 5 1 6 -3 14 -2 18 4 3 5 8 10
11 10 2 0 -1 -9 -8 -20z m29 -12 c-3 -8 -6 -5 -6 6 -1 11 2 17 5 13 3 -3 4
-12 1 -19z m-17 -28 c0 -5 -4 -10 -10 -10 -5 0 -10 5 -10 10 0 6 5 10 10 10 6
0 10 -4 10 -10z m-130 -15 c0 -2 -6 -8 -13 -14 -10 -8 -14 -7 -14 2 0 8 6 14
14 14 7 0 13 -1 13 -2z m32 -2 c-6 -2 -10 -8 -7 -13 3 -4 -2 -11 -10 -14 -13
-4 -14 -2 -5 14 6 11 16 20 23 19 9 0 9 -2 -1 -6z m160 -45 c7 -18 -2 -39 -13
-32 -5 3 -9 1 -9 -5 0 -6 -9 -15 -19 -20 -14 -8 -20 -7 -24 4 -4 9 -1 12 7 9
8 -3 18 1 22 8 9 13 10 18 13 38 2 14 18 12 23 -2z m-292 -13 c-7 -9 -15 -13
-18 -10 -3 3 -15 -3 -26 -12 -21 -18 -21 -18 -2 4 10 13 22 20 27 18 4 -3 10
-1 14 5 3 5 9 10 12 10 3 0 0 -7 -7 -15z m50 -15 c0 -5 -5 -10 -11 -10 -5 0
-7 5 -4 10 3 6 8 10 11 10 2 0 4 -4 4 -10z m-183 -35 c0 -8 -4 -12 -9 -9 -5 3
-6 10 -3 15 9 13 12 11 12 -6z m63 -9 c0 -2 -7 -7 -16 -10 -8 -3 -12 -2 -9 4
6 10 25 14 25 6z m-90 -22 c0 -8 -19 -13 -24 -6 -3 5 1 9 9 9 8 0 15 -2 15 -3z
m128 -19 c-3 -3 -9 2 -12 12 -6 14 -5 15 5 6 7 -7 10 -15 7 -18z m-67 -8 c-10
-9 -11 -8 -5 6 3 10 9 15 12 12 3 -3 0 -11 -7 -18z m-83 -17 c-7 -11 -14 -16
-16 -11 -2 5 -15 7 -30 5 -19 -3 -23 -2 -13 5 8 5 22 8 32 6 10 -2 21 0 24 6
4 5 8 9 11 9 2 0 -1 -9 -8 -20z m-2655 -7 c-7 -3 -13 -9 -13 -14 0 -11 22 -8
31 5 4 5 12 5 18 1 9 -5 9 -10 0 -21 -8 -9 -8 -14 -1 -14 6 0 16 8 21 18 6 9
11 12 11 5 0 -6 -5 -15 -10 -18 -6 -4 -8 -11 -4 -16 3 -6 11 -4 18 6 10 13 14
14 30 2 15 -11 16 -16 6 -22 -9 -6 -11 -4 -5 5 6 10 4 12 -11 6 -10 -4 -23 -8
-29 -9 -5 -1 -12 -5 -15 -9 -3 -4 -20 6 -38 23 -18 16 -32 26 -32 22 0 -5 -9
-9 -20 -10 -11 -1 -20 2 -20 8 0 5 8 9 18 9 9 0 23 9 30 21 7 12 16 18 20 14
4 -4 1 -10 -5 -12z m2684 -5 c-3 -8 -6 -5 -6 6 -1 11 2 17 5 13 3 -3 4 -12 1
-19z m-69 -28 c-7 -10 -14 -17 -17 -15 -4 4 18 35 25 35 2 0 -1 -9 -8 -20z
m42 0 c-8 -5 -19 -10 -25 -10 -5 0 -3 5 5 10 8 5 20 10 25 10 6 0 3 -5 -5 -10z
m-73 -15 c0 -8 -4 -12 -9 -9 -5 3 -6 10 -3 15 9 13 12 11 12 -6z m-60 -21 c-3
-3 -13 -7 -22 -8 -9 -1 -21 -9 -26 -17 -5 -8 -9 -9 -9 -3 0 16 18 30 41 31 12
1 19 0 16 -3z m-2517 -24 c0 -5 -2 -10 -4 -10 -3 0 -8 5 -11 10 -3 6 -1 10 4
10 6 0 11 -4 11 -10z m2560 0 c0 -5 -4 -10 -10 -10 -5 0 -10 5 -10 10 0 6 5
10 10 10 6 0 10 -4 10 -10z m-147 -15 c-3 -9 -8 -14 -10 -11 -3 3 -2 9 2 15 9
16 15 13 8 -4z m36 -9 c9 -11 9 -16 0 -22 -8 -4 -9 -3 -5 4 10 16 -7 15 -23 0
-11 -10 -10 -8 0 10 16 26 14 25 28 8z m71 4 c-8 -5 -19 -10 -25 -10 -5 0 -3
5 5 10 8 5 20 10 25 10 6 0 3 -5 -5 -10z m235 -8 c-3 -3 -11 0 -18 7 -9 10 -8
11 6 5 10 -3 15 -9 12 -12z m-2632 1 c3 -5 -6 -9 -20 -10 -19 -1 -22 1 -12 8
17 11 26 11 32 2z m2348 -26 c-10 -9 -11 -8 -5 6 3 10 9 15 12 12 3 -3 0 -11
-7 -18z m-55 -9 c2 -3 -16 -5 -40 -4 -24 1 -42 4 -40 8 5 7 72 3 80 -4z
m-2258 -23 c-3 -3 -9 2 -12 12 -6 14 -5 15 5 6 7 -7 10 -15 7 -18z m77 -15
c22 -14 44 -25 49 -25 5 0 10 -6 12 -13 2 -8 0 -8 -3 -1 -4 8 -8 7 -14 -2 -6
-11 -13 -11 -26 -3 -10 6 -18 16 -18 22 0 6 -4 14 -8 19 -5 4 -8 3 -7 -2 5
-23 -1 -23 -25 -1 -45 42 -23 45 40 6z m2122 -8 c0 -13 0 -22 -1 -20 0 2 -9
12 -18 23 -16 20 -16 21 0 21 11 0 18 -9 19 -24z m-53 10 c3 -5 -1 -9 -9 -9
-8 0 -12 4 -9 9 3 4 7 8 9 8 2 0 6 -4 9 -8z m36 -38 c0 -8 -4 -14 -10 -14 -5
0 -6 8 -3 18 6 15 5 15 -11 3 -13 -11 -19 -12 -29 -2 -9 10 -8 11 4 6 10 -4
20 -1 24 4 8 14 25 4 25 -15z m-165 -3 c3 -5 2 -12 -3 -15 -5 -3 -9 1 -9 9 0
17 3 19 12 6z m-1782 -34 c4 3 7 1 7 -5 0 -15 -13 -15 -28 0 -9 9 -12 9 -12 0
0 -7 5 -12 10 -12 6 0 9 -5 8 -11 -2 -6 4 -14 12 -16 13 -4 13 -3 0 6 -9 7
-10 11 -3 11 15 0 26 -17 18 -30 -4 -6 -15 -4 -30 6 -14 9 -22 20 -19 25 3 5
0 9 -7 9 -8 0 -8 4 1 15 9 11 16 12 25 5 6 -5 15 -7 18 -3z m92 -23 c13 -20
19 -23 31 -14 11 10 15 9 20 -4 3 -9 11 -13 18 -9 6 3 6 1 -1 -8 -7 -7 -13
-20 -13 -28 1 -13 2 -13 11 1 10 17 39 14 39 -4 0 -6 -6 -5 -15 2 -10 9 -15 9
-15 1 0 -10 7 -13 26 -10 4 0 11 -5 16 -13 6 -9 7 -5 3 12 -6 24 -5 24 7 5 7
-12 22 -21 33 -21 13 1 19 -5 17 -16 -2 -12 3 -16 18 -13 11 2 20 0 20 -6 0
-5 6 -8 13 -6 7 1 11 -6 9 -18 -2 -11 -1 -17 4 -13 4 4 14 2 22 -5 13 -10 15
-9 9 8 -6 18 -5 18 12 -2 10 -12 21 -19 25 -16 3 4 6 1 6 -6 0 -7 7 -11 15 -8
8 4 22 -4 34 -19 11 -13 23 -23 28 -22 16 4 54 -23 47 -34 -5 -7 -2 -9 8 -6 8
4 21 2 29 -4 11 -8 10 -9 -3 -4 -20 6 -22 -2 -8 -24 9 -13 10 -13 10 0 1 12 3
11 11 -2 5 -10 15 -18 21 -18 9 0 9 3 0 12 -15 15 -15 28 -1 28 5 0 8 -4 4 -9
-7 -12 29 -33 39 -24 3 3 6 1 6 -5 0 -7 -7 -12 -17 -12 -9 0 -13 -3 -9 -7 13
-13 31 -9 38 7 5 12 7 12 7 -2 1 -10 6 -18 12 -18 5 0 7 5 3 12 -5 7 -3 8 6 3
10 -6 10 -10 -3 -20 -14 -10 -13 -12 4 -23 11 -7 17 -17 14 -22 -7 -11 29 -32
39 -23 3 3 6 1 6 -6 0 -7 5 -9 10 -6 6 3 10 1 10 -5 0 -6 4 -8 10 -5 6 3 7 -1
4 -9 -5 -14 -8 -14 -21 -1 -13 13 -18 13 -45 -6 l-30 -22 11 21 c7 12 17 22
23 22 6 0 -1 9 -15 20 -31 24 -31 24 -53 3 -16 -16 -17 -16 -11 -1 9 25 -30
70 -55 62 -18 -5 -19 -4 -8 16 10 18 9 21 -1 15 -8 -6 -10 -4 -4 5 5 8 4 11
-3 6 -6 -4 -9 -13 -6 -20 3 -8 1 -17 -5 -21 -7 -3 -11 2 -11 14 0 26 -16 36
-24 14 -5 -11 -10 -13 -17 -6 -8 8 -8 17 0 31 7 13 7 23 1 27 -5 3 -7 11 -4
18 3 8 -4 13 -17 14 -16 2 -18 -1 -9 -12 8 -10 8 -19 -2 -34 -7 -12 -15 -21
-19 -21 -12 0 -51 49 -45 58 3 5 -1 15 -9 22 -8 7 -15 9 -15 4 0 -5 -5 -2 -10
6 -8 13 -10 13 -10 0 0 -9 -6 -6 -16 9 -12 16 -19 20 -24 11 -11 -18 -23 -7
-65 55 -20 30 -39 55 -42 55 -3 0 0 -6 6 -13 6 -8 8 -17 4 -20 -3 -4 -1 -7 6
-7 7 0 9 -5 5 -11 -5 -8 -10 -7 -16 4 -5 9 -14 15 -21 13 -6 -1 -9 -1 -4 1 4
3 7 11 7 19 0 13 -7 16 -26 13 -4 0 -11 5 -15 13 -7 10 -9 10 -9 -2 0 -11 -2
-12 -8 -2 -6 9 -12 5 -22 -13 -7 -14 -18 -25 -23 -25 -5 0 -4 6 2 14 14 17 -2
31 -21 20 -10 -6 -10 -5 0 8 17 22 -23 75 -44 57 -10 -8 -14 -8 -14 0 0 6 5
11 11 11 5 0 7 6 3 13 -5 7 0 6 11 -3 16 -14 17 -13 11 8 -10 30 8 28 29 -4z
m1719 17 c-2 -3 -19 -6 -36 -7 -18 -2 -27 1 -20 5 13 8 64 10 56 2z m-107 -53
c-3 -8 -6 -5 -6 6 -1 11 2 17 5 13 3 -3 4 -12 1 -19z m43 18 c0 -3 -4 -8 -10
-11 -5 -3 -10 -1 -10 4 0 6 5 11 10 11 6 0 10 -2 10 -4z m-65 -34 c-3 -3 -11
0 -18 7 -9 10 -8 11 6 5 10 -3 15 -9 12 -12z m32 -24 c-3 -8 -6 -5 -6 6 -1 11
2 17 5 13 3 -3 4 -12 1 -19z m-147 -8 c0 -4 -7 -7 -15 -6 -23 3 -26 12 -5 13
11 1 20 -2 20 -7z m90 -4 c-6 -6 -18 -5 -32 1 -21 10 -21 10 9 9 19 -1 28 -5
23 -10z m-52 -25 c-7 -9 -13 -18 -15 -20 -1 -2 -1 5 0 16 0 11 7 20 14 20 10
0 10 -4 1 -16z m-82 -25 c1 -8 -7 -13 -20 -12 -11 1 -20 -4 -19 -10 1 -6 -5
-11 -13 -11 -12 0 -11 3 2 18 9 10 21 17 28 16 6 -1 10 5 8 13 -2 8 0 11 4 7
4 -4 9 -14 10 -21z m32 -1 c-3 -3 -9 2 -12 12 -6 14 -5 15 5 6 7 -7 10 -15 7
-18z m27 -5 c3 -5 1 -10 -4 -10 -6 0 -11 5 -11 10 0 6 2 10 4 10 3 0 8 -4 11
-10z m-198 -45 c0 -8 -4 -12 -9 -9 -5 3 -6 10 -3 15 9 13 12 11 12 -6z m43
-29 c0 -2 -7 -7 -16 -10 -8 -3 -12 -2 -9 4 6 10 25 14 25 6z m-102 -51 c0 -14
-4 -25 -7 -25 -4 0 -7 13 -6 29 0 16 3 27 6 25 4 -2 7 -15 7 -29z m35 18 c-3
-7 -6 -13 -8 -13 -2 0 -5 6 -8 13 -3 8 1 14 8 14 7 0 11 -6 8 -14z m-117 -49
c1 -9 0 -13 -4 -10 -3 4 -7 14 -8 22 -1 9 0 13 4 10 3 -4 7 -14 8 -22z m15
-27 c-10 -9 -11 -8 -5 6 3 10 9 15 12 12 3 -3 0 -11 -7 -18z m-114 -10 c0 -8
-6 -14 -14 -14 -9 0 -10 4 -2 14 6 7 12 13 14 13 1 0 2 -6 2 -13z m98 -7 c13
-6 15 -9 5 -9 -8 0 -22 4 -30 9 -18 12 -2 12 25 0z m-114 -28 c-7 -2 -18 1
-23 6 -8 8 -4 9 13 5 13 -4 18 -8 10 -11z m34 -12 c-3 -5 -1 -10 4 -10 6 0 11
-5 11 -11 0 -8 -5 -8 -15 1 -17 14 -20 30 -4 30 5 0 7 -4 4 -10z m-122 -15
c-3 -9 -8 -14 -10 -11 -3 3 -2 9 2 15 9 16 15 13 8 -4z m-33 -15 c8 -5 11 -10
5 -10 -5 0 -17 5 -25 10 -8 5 -10 10 -5 10 6 0 17 -5 25 -10z m-30 -10 c8 -5
11 -10 5 -10 -5 0 -17 5 -25 10 -8 5 -10 10 -5 10 6 0 17 -5 25 -10z m55 -10
c-3 -5 -12 -10 -18 -10 -7 0 -6 4 3 10 19 12 23 12 15 0z m-15 -121 c0 -6 -4
-7 -10 -4 -5 3 -10 11 -10 16 0 6 5 7 10 4 6 -3 10 -11 10 -16z m50 11 c0 -5
-5 -10 -11 -10 -5 0 -7 5 -4 10 3 6 8 10 11 10 2 0 4 -4 4 -10z"/>
<path d="M6281 5006 c-8 -9 -9 -16 -4 -16 6 0 10 -8 10 -17 0 -34 3 -39 22
-40 11 -1 27 8 38 19 10 12 13 18 6 15 -6 -4 -22 6 -35 24 -22 27 -26 28 -37
15z m52 -59 c-3 -4 -10 -3 -17 2 -7 6 -15 9 -17 7 -2 -3 -5 8 -5 24 l-2 28 23
-26 c13 -15 21 -31 18 -35z"/>
<path d="M6300 4976 c0 -2 8 -10 18 -17 15 -13 16 -12 3 4 -13 16 -21 21 -21
13z"/>
<path d="M2020 2280 c-13 -9 -13 -10 0 -11 8 -1 18 -1 22 0 4 0 17 -13 29 -30
11 -16 24 -28 27 -25 3 4 15 0 27 -8 14 -9 27 -11 36 -5 8 5 10 9 4 10 -30 2
-47 9 -69 27 -14 11 -23 22 -21 26 3 3 2 4 -2 1 -3 -3 -14 1 -22 9 -11 10 -21
12 -31 6z"/>
<path d="M2205 2170 c-3 -5 -3 -10 2 -10 4 0 1 -5 -7 -11 -12 -8 -12 -10 -1
-7 8 2 15 12 17 21 3 19 -2 22 -11 7z"/>
<path d="M2239 2139 c-6 -31 -6 -39 2 -39 5 0 9 4 9 10 0 5 7 7 15 4 8 -3 13
-11 12 -17 -1 -6 3 -11 10 -12 6 0 15 -3 19 -7 11 -11 24 -10 24 3 0 5 -5 7
-12 3 -7 -5 -8 -3 -3 6 6 9 4 11 -5 5 -9 -5 -11 -4 -6 3 10 17 11 16 45 -30
17 -23 31 -38 31 -33 0 5 10 -1 23 -13 13 -12 27 -19 30 -15 4 4 14 -3 23 -15
8 -12 19 -20 24 -17 5 3 13 -3 19 -12 7 -12 10 -13 11 -4 0 10 3 11 13 2 8 -6
17 -8 20 -4 13 12 7 -23 -5 -37 -11 -12 -10 -12 5 0 16 12 20 12 28 -1 7 -12
9 -12 9 1 0 13 1 13 10 0 5 -8 10 -11 10 -7 0 4 -10 21 -22 37 -16 22 -25 27
-34 19 -9 -7 -19 -2 -36 21 -18 25 -25 28 -33 18 -8 -11 -13 -11 -27 4 -11 10
-13 18 -6 18 15 0 4 11 -14 14 -21 3 -39 17 -33 25 2 5 -6 7 -19 6 -17 -2 -27
4 -35 22 -7 15 -17 23 -26 20 -7 -3 -16 -1 -19 6 -3 9 -5 9 -5 -1 -1 -9 -7 -8
-26 4 -14 9 -25 15 -26 13z m166 -99 c4 -6 10 -8 14 -6 4 3 8 -2 8 -10 0 -14
-6 -11 -62 40 -5 4 0 3 12 -3 12 -6 25 -16 28 -21z m96 -57 c12 -16 12 -17 -2
-6 -9 7 -20 9 -24 5 -5 -4 -5 -1 -1 6 9 16 11 15 27 -5z"/>
<path d="M2627 1916 c-4 -10 1 -20 13 -26 11 -6 20 -7 20 -3 0 4 4 2 9 -5 6
-11 10 -10 19 1 9 11 7 13 -11 12 -13 -1 -26 6 -33 18 -9 17 -12 17 -17 3z"/>
<path d="M6001 2146 c-6 -7 -10 -15 -8 -17 1 -2 -3 1 -9 8 -6 7 -15 8 -25 2
-8 -5 -11 -9 -6 -10 4 -1 10 -2 15 -3 4 -1 16 -7 27 -13 20 -12 20 -12 -2 -10
-12 0 -19 5 -16 10 3 5 -3 4 -13 -1 -11 -6 -22 -10 -26 -11 -5 -1 -9 -1 -10
-2 -2 0 -12 -2 -23 -4 -11 -2 -27 -13 -36 -24 -11 -13 -20 -16 -26 -10 -7 7
-12 6 -15 -3 -4 -9 4 -13 24 -13 19 -1 27 3 24 12 -3 7 0 15 6 19 6 4 8 3 4
-4 -10 -16 14 -26 27 -12 7 8 8 10 1 7 -6 -3 -11 0 -11 8 0 9 7 11 21 6 12 -3
28 -6 36 -6 25 1 61 25 54 36 -3 5 -1 16 6 24 6 8 7 16 2 19 -6 3 -15 0 -21
-8z m-16 -55 c-8 -7 -45 -9 -50 -1 -2 3 9 6 25 6 17 0 27 -2 25 -5z"/>
<path d="M5776 2028 c-9 -12 -16 -18 -16 -13 0 6 -7 1 -15 -9 -8 -11 -15 -14
-15 -7 0 7 -5 9 -11 6 -6 -5 -4 -12 7 -20 16 -12 16 -13 -3 -24 -16 -8 -23 -8
-26 2 -4 9 -6 9 -6 0 -1 -7 -5 -13 -11 -13 -5 0 -9 5 -7 11 1 6 -3 13 -9 16
-14 5 -11 -34 3 -48 8 -8 20 -5 45 14 18 13 40 22 48 20 12 -4 12 -3 2 5 -11
7 -10 11 4 16 9 3 14 9 10 13 -3 4 4 17 16 30 12 13 16 23 10 23 -6 0 -18 -10
-26 -22z m-6 -32 c0 -2 -7 -7 -16 -10 -8 -3 -12 -2 -9 4 6 10 25 14 25 6z
m-80 -60 c-7 -7 -13 -7 -20 0 -6 6 -3 10 10 10 13 0 16 -4 10 -10z"/>
<path d="M5591 1918 c4 -24 -12 -47 -29 -41 -13 4 -14 3 -3 -5 8 -6 10 -15 6
-23 -6 -11 -5 -11 5 -2 7 6 18 9 25 7 13 -5 29 22 20 36 -3 4 2 11 11 14 20 8
12 19 -17 23 -12 2 -19 -2 -18 -9z m19 -37 c0 -6 -4 -13 -10 -16 -5 -3 -10 1
-10 9 0 9 5 16 10 16 6 0 10 -4 10 -9z"/>
<path d="M5500 1861 c-8 -6 -17 -8 -20 -6 -8 5 -6 -62 2 -70 3 -4 11 2 17 14
7 13 8 22 1 26 -19 12 -10 26 13 20 15 -4 18 -3 8 3 -11 8 -11 10 0 15 8 3 10
6 4 6 -5 0 -17 -3 -25 -8z m-7 -56 c-7 -21 -12 -19 -10 4 0 11 5 18 9 15 4 -3
5 -11 1 -19z"/>
<path d="M5423 1789 c13 -21 27 -25 27 -9 0 6 0 13 0 18 0 4 -8 7 -19 8 -16 1
-18 -2 -8 -17z"/>
<path d="M5382 1785 c4 -4 0 -13 -8 -20 -15 -11 -15 -12 -1 -12 20 0 30 24 14
33 -7 4 -9 4 -5 -1z"/>
<path d="M5233 1720 c-13 -5 -23 -15 -23 -22 0 -9 3 -9 12 0 7 7 17 12 23 12
5 0 2 -5 -8 -11 -9 -6 -14 -15 -11 -21 5 -7 2 -8 -6 -3 -9 6 -11 4 -5 -5 5 -9
4 -11 -4 -6 -6 4 -9 11 -6 16 3 5 1 11 -3 14 -5 3 -15 -6 -22 -19 -7 -13 -20
-23 -29 -22 -9 1 -17 -2 -19 -8 -1 -5 7 -11 18 -11 11 -1 20 3 20 8 0 5 5 6
11 2 8 -4 7 -9 -2 -15 -7 -4 -16 -6 -20 -3 -4 2 -15 -6 -23 -18 -11 -15 -16
-18 -16 -8 0 12 -2 12 -9 2 -6 -11 -10 -10 -15 5 -7 17 -8 17 -21 -1 -8 -10
-12 -23 -8 -29 3 -5 -3 -6 -15 -3 -11 4 -23 2 -27 -4 -3 -6 -11 -8 -16 -5 -5
4 -9 3 -10 -2 0 -4 -2 -16 -4 -26 -3 -15 -1 -16 11 -6 8 6 14 8 14 3 0 -5 5
-2 10 6 9 13 11 13 19 0 8 -12 12 -10 20 10 5 14 10 18 11 10 0 -13 1 -13 10
0 5 8 13 15 17 16 20 2 42 17 37 25 -3 5 3 9 12 9 10 0 33 14 51 32 32 31 33
31 53 13 16 -15 20 -15 15 -3 -4 9 0 18 10 22 9 3 14 10 10 15 -3 5 -1 12 5
16 5 3 10 10 10 16 0 5 -9 0 -20 -11 -11 -11 -24 -20 -29 -20 -6 0 -8 9 -6 20
2 11 3 20 2 19 -1 0 -12 -4 -24 -9z m43 -42 c-10 -6 -22 -6 -26 -2 -5 5 3 10
18 11 22 1 24 0 8 -9z m-74 -22 c7 4 8 2 4 -5 -9 -13 -26 -5 -25 12 0 9 2 8 6
-1 2 -6 10 -9 15 -6z m-108 -78 c-9 -14 -23 2 -17 18 4 12 8 13 14 3 4 -7 5
-17 3 -21z m-40 -16 c2 -4 -4 -8 -14 -8 -10 0 -16 4 -14 8 3 4 9 8 14 8 5 0
11 -4 14 -8z"/>
<path d="M4936 1499 c2 -4 -4 -12 -13 -18 -10 -6 -14 -11 -10 -11 5 0 20 9 34
19 22 18 22 20 4 18 -11 0 -18 -4 -15 -8z"/>
<path d="M2745 1850 c-4 -6 -12 -7 -18 -3 -7 3 -3 -3 7 -15 11 -12 24 -22 30
-22 6 0 3 5 -7 11 -14 8 -16 14 -6 25 6 8 9 14 6 14 -3 0 -9 -5 -12 -10z"/>
<path d="M3197 1574 c-4 -4 5 -20 18 -36 14 -16 25 -35 25 -41 0 -7 4 -6 10 3
5 8 7 23 4 34 -4 12 -2 16 5 12 7 -5 9 -1 5 9 -5 11 -10 13 -17 6 -8 -8 -16
-6 -27 4 -9 8 -20 12 -23 9z m52 -57 c-2 -3 -15 10 -28 27 l-24 31 28 -27 c16
-15 27 -29 24 -31z"/>
<path d="M3366 1478 c3 -5 10 -6 15 -3 13 9 11 12 -6 12 -8 0 -12 -4 -9 -9z"/>
<path d="M3380 1456 c0 -2 13 -20 29 -40 18 -22 32 -32 36 -26 5 8 11 7 22 -2
8 -6 22 -13 30 -14 22 -4 52 -34 47 -47 -5 -15 33 -40 47 -32 5 4 7 11 4 16
-4 5 -8 18 -10 30 -5 27 -25 50 -36 43 -5 -3 -19 1 -31 8 -13 7 -26 13 -30 14
-5 1 -9 2 -10 4 -2 1 -11 3 -22 5 -10 2 -24 9 -30 16 -8 9 -8 10 1 5 6 -3 14
-3 17 2 3 5 0 9 -7 10 -7 0 -22 3 -34 6 -13 2 -23 3 -23 2z m63 -55 c-4 -6
-43 30 -43 40 0 5 10 -2 23 -14 13 -12 22 -24 20 -26z m49 -6 c3 0 9 -3 13 -7
4 -3 0 -5 -9 -4 -9 1 -22 8 -29 16 -10 10 -9 11 3 4 8 -5 18 -9 22 -9z m65
-30 c-7 19 -6 19 7 2 8 -10 13 -26 11 -35 -1 -9 3 -20 9 -24 8 -6 8 -8 0 -8
-6 0 -17 7 -24 15 -7 8 -9 15 -4 15 4 0 -3 12 -17 27 l-24 28 24 -20 c24 -20
24 -20 18 0z"/>
<path d="M3635 1321 c-3 -5 -1 -12 5 -16 7 -4 7 -13 -1 -28 -9 -19 -8 -20 3
-5 13 15 15 15 26 0 10 -14 11 -13 2 5 -5 12 -15 25 -20 28 -6 4 -8 11 -5 16
4 5 4 9 1 9 -3 0 -7 -4 -11 -9z"/>
<path d="M3723 1254 c-16 -7 53 -67 79 -69 20 -2 20 -1 2 12 -10 8 -18 18 -17
23 1 4 -5 7 -15 5 -20 -3 -44 14 -36 26 6 10 5 10 -13 3z m58 -51 c13 -16 12
-17 -3 -4 -17 13 -22 21 -14 21 2 0 10 -8 17 -17z"/>
<path d="M4130 6460 c0 -5 5 -10 11 -10 5 0 7 5 4 10 -3 6 -8 10 -11 10 -2 0
-4 -4 -4 -10z"/>
<path d="M4320 6440 c-9 -6 -10 -10 -3 -10 6 0 15 5 18 10 8 12 4 12 -15 0z"/>
<path d="M4355 6420 c3 -5 8 -10 11 -10 2 0 4 5 4 10 0 6 -5 10 -11 10 -5 0
-7 -4 -4 -10z"/>
<path d="M4273 6393 c0 -9 4 -10 14 -2 7 6 13 12 13 14 0 1 -6 2 -13 2 -8 0
-14 -6 -14 -14z"/>
<path d="M4285 6360 c-3 -5 -1 -10 4 -10 6 0 11 5 11 10 0 6 -2 10 -4 10 -3 0
-8 -4 -11 -10z"/>
<path d="M4334 6355 c1 -8 6 -18 11 -22 4 -5 5 -2 0 6 -6 11 -4 13 8 8 23 -9
21 0 -2 13 -15 7 -19 7 -17 -5z"/>
<path d="M4410 6361 c0 -6 4 -13 10 -16 6 -3 7 1 4 9 -7 18 -14 21 -14 7z"/>
<path d="M4310 6343 c0 -6 8 -17 18 -24 16 -13 16 -13 2 6 -8 11 -16 22 -17
24 -2 2 -3 0 -3 -6z"/>
<path d="M4386 6337 c3 -9 10 -17 15 -17 19 0 24 -2 39 -13 13 -11 13 -10 1 6
-8 9 -16 15 -19 12 -3 -3 -14 3 -24 12 -18 16 -18 16 -12 0z"/>
<path d="M4396 6297 c3 -10 9 -15 12 -12 3 3 0 11 -7 18 -10 9 -11 8 -5 -6z"/>
<path d="M4464 6302 c4 -3 14 -7 22 -8 9 -1 13 0 10 4 -4 3 -14 7 -22 8 -9 1
-13 0 -10 -4z"/>
<path d="M4468 6273 c7 -3 16 -2 19 1 4 3 -2 6 -13 5 -11 0 -14 -3 -6 -6z"/>
<path d="M4594 6245 c0 -13 3 -22 7 -19 8 4 6 30 -2 38 -3 3 -5 -5 -5 -19z"/>
<path d="M4533 6252 c-10 -7 -10 -12 0 -27 11 -14 16 -15 22 -5 6 9 4 11 -5 5
-10 -6 -12 -3 -8 13 4 12 5 22 5 22 -1 0 -8 -4 -14 -8z"/>
<path d="M4470 6240 c8 -5 20 -10 25 -10 6 0 3 5 -5 10 -8 5 -19 10 -25 10 -5
0 -3 -5 5 -10z"/>
<path d="M4633 6232 c2 -12 6 -24 10 -28 3 -4 4 4 2 16 -6 30 -16 40 -12 12z"/>
<path d="M4673 6223 c4 -3 -1 -16 -10 -27 -18 -21 -18 -21 4 -2 20 16 23 36 6
36 -4 0 -3 -3 0 -7z"/>
<path d="M4694 6198 c-4 -7 -4 -10 1 -6 4 4 15 2 24 -5 14 -11 14 -10 2 6 -16
20 -18 21 -27 5z"/>
<path d="M4616 6183 c-6 -14 -5 -15 5 -6 7 7 10 15 7 18 -3 3 -9 -2 -12 -12z"/>
<path d="M4590 6173 c0 -6 8 -17 18 -24 16 -13 16 -13 2 6 -8 11 -16 22 -17
24 -2 2 -3 0 -3 -6z"/>
<path d="M4630 6165 c0 -5 5 -17 10 -25 5 -8 10 -10 10 -5 0 6 -5 17 -10 25
-5 8 -10 11 -10 5z"/>
<path d="M4650 6166 c0 -3 9 -10 20 -16 11 -6 20 -8 20 -6 0 3 -9 10 -20 16
-11 6 -20 8 -20 6z"/>
<path d="M4915 6160 c3 -5 8 -10 11 -10 2 0 4 5 4 10 0 6 -5 10 -11 10 -5 0
-7 -4 -4 -10z"/>
<path d="M4717 6133 c3 -7 6 -13 8 -13 2 0 5 6 8 13 3 8 -1 14 -8 14 -7 0 -11
-6 -8 -14z"/>
<path d="M4754 6119 c-1 -16 2 -29 6 -29 7 0 7 46 0 54 -3 2 -6 -9 -6 -25z"/>
<path d="M4796 6099 c2 -4 -2 -10 -8 -12 -8 -4 -9 -6 -2 -6 6 -1 17 5 23 12 8
10 7 14 -4 14 -8 0 -12 -4 -9 -8z"/>
<path d="M4721 6087 c2 -1 11 -8 21 -15 12 -10 18 -10 24 -1 4 7 3 9 -4 5 -6
-3 -13 -2 -17 4 -3 5 -11 10 -17 10 -6 0 -9 -1 -7 -3z"/>
<path d="M4814 6072 c4 -7 5 -12 2 -12 -2 0 -12 -3 -22 -7 -13 -5 -15 -3 -9 7
5 9 4 11 -4 6 -11 -7 -6 -26 8 -26 4 0 15 6 26 13 14 11 15 16 5 22 -9 5 -11
4 -6 -3z"/>
<path d="M4830 6038 c0 -4 7 -8 15 -8 8 0 15 4 15 8 0 5 -7 9 -15 9 -8 0 -15
-4 -15 -9z"/>
<path d="M4916 6035 c-9 -26 -7 -32 5 -12 6 10 9 21 6 23 -2 3 -7 -2 -11 -11z"/>
<path d="M4975 6040 c-3 -5 -1 -10 4 -10 6 0 11 5 11 10 0 6 -2 10 -4 10 -3 0
-8 -4 -11 -10z"/>
<path d="M4935 6009 c-4 -6 -5 -12 -2 -15 2 -3 7 2 10 11 7 17 1 20 -8 4z"/>
<path d="M4966 5998 c3 -5 9 -7 12 -4 3 3 12 0 21 -6 13 -10 14 -10 4 2 -15
16 -46 23 -37 8z"/>
<path d="M5005 5960 c-13 -14 -22 -17 -29 -10 -13 13 -26 13 -26 -1 0 -5 4 -8
9 -4 6 3 13 -1 18 -8 6 -11 13 -8 31 14 27 33 24 39 -3 9z"/>
<path d="M5030 5939 c0 -5 5 -7 10 -4 6 3 10 8 10 11 0 2 -4 4 -10 4 -5 0 -10
-5 -10 -11z"/>
<path d="M5060 5946 c0 -2 8 -10 18 -17 15 -13 16 -12 3 4 -13 16 -21 21 -21
13z"/>
<path d="M5006 5923 c-6 -14 -5 -15 5 -6 7 7 10 15 7 18 -3 3 -9 -2 -12 -12z"/>
<path d="M5045 5919 c-4 -6 -4 -13 -1 -16 3 -4 6 -1 6 6 0 7 5 9 12 5 7 -4 8
-3 4 4 -9 15 -13 15 -21 1z"/>
<path d="M5270 5900 c0 -5 5 -10 11 -10 5 0 7 5 4 10 -3 6 -8 10 -11 10 -2 0
-4 -4 -4 -10z"/>
<path d="M5070 5890 c8 -5 20 -10 25 -10 6 0 3 5 -5 10 -8 5 -19 10 -25 10 -5
0 -3 -5 5 -10z"/>
<path d="M5120 5880 c-9 -6 -10 -10 -3 -10 6 0 15 5 18 10 8 12 4 12 -15 0z"/>
<path d="M5155 5880 c3 -5 8 -10 11 -10 2 0 4 5 4 10 0 6 -5 10 -11 10 -5 0
-7 -4 -4 -10z"/>
<path d="M5180 5867 c0 -9 31 -37 41 -37 5 0 9 5 9 12 0 6 -3 8 -7 5 -3 -4
-15 0 -25 10 -10 9 -18 13 -18 10z"/>
<path d="M5274 5862 c4 -3 14 -7 22 -8 9 -1 13 0 10 4 -4 3 -14 7 -22 8 -9 1
-13 0 -10 -4z"/>
<path d="M2836 5842 c-3 -5 1 -9 9 -9 8 0 12 4 9 9 -3 4 -7 8 -9 8 -2 0 -6 -4
-9 -8z"/>
<path d="M5170 5821 c0 -6 4 -13 10 -16 6 -3 7 1 4 9 -7 18 -14 21 -14 7z"/>
<path d="M5196 5817 c3 -10 9 -15 12 -12 3 3 0 11 -7 18 -10 9 -11 8 -5 -6z"/>
<path d="M5243 5815 c-3 -9 -3 -18 -1 -21 3 -3 8 4 11 16 6 23 -1 27 -10 5z"/>
<path d="M5315 5809 c-4 -6 -5 -12 -2 -15 2 -3 7 2 10 11 7 17 1 20 -8 4z"/>
<path d="M5355 5800 c3 -5 8 -10 11 -10 2 0 4 5 4 10 0 6 -5 10 -11 10 -5 0
-7 -4 -4 -10z"/>
<path d="M5257 5783 c-4 -3 -7 -11 -7 -17 0 -6 5 -5 12 2 6 6 9 14 7 17 -3 3
-9 2 -12 -2z"/>
<path d="M5285 5780 c-7 -12 2 -30 16 -30 5 0 9 5 9 11 0 5 -5 7 -12 3 -8 -5
-9 -2 -5 9 7 19 2 23 -8 7z"/>
<path d="M5325 5780 c-3 -6 1 -7 9 -4 18 7 21 14 7 14 -6 0 -13 -4 -16 -10z"/>
<path d="M5410 5780 c0 -5 5 -10 11 -10 5 0 7 5 4 10 -3 6 -8 10 -11 10 -2 0
-4 -4 -4 -10z"/>
<path d="M5351 5767 c-8 -10 -7 -14 2 -14 8 0 14 6 14 14 0 7 -1 13 -2 13 -2
0 -8 -6 -14 -13z"/>
<path d="M5380 5719 c0 -3 11 -6 25 -6 14 0 25 3 25 6 0 4 -11 7 -25 7 -14 0
-25 -3 -25 -7z"/>
<path d="M5476 5713 c-4 -9 -3 -20 1 -24 4 -4 9 3 9 17 2 28 -1 31 -10 7z"/>
<path d="M5535 5720 c3 -5 8 -10 11 -10 2 0 4 5 4 10 0 6 -5 10 -11 10 -5 0
-7 -4 -4 -10z"/>
<path d="M5355 5700 c3 -5 8 -10 11 -10 2 0 4 5 4 10 0 6 -5 10 -11 10 -5 0
-7 -4 -4 -10z"/>
<path d="M5506 5702 c-3 -5 1 -9 9 -9 8 0 12 4 9 9 -3 4 -7 8 -9 8 -2 0 -6 -4
-9 -8z"/>
<path d="M5570 5680 c0 -5 5 -10 11 -10 5 0 7 5 4 10 -3 6 -8 10 -11 10 -2 0
-4 -4 -4 -10z"/>
<path d="M5420 5676 c0 -2 7 -6 15 -10 8 -3 15 -1 15 4 0 6 -7 10 -15 10 -8 0
-15 -2 -15 -4z"/>
<path d="M5470 5660 c-11 -7 -11 -10 -2 -10 7 0 10 -5 6 -12 -5 -7 -3 -8 6 -3
7 4 16 2 21 -6 7 -11 9 -11 9 -1 0 7 -7 15 -15 18 -8 4 -12 10 -9 15 7 11 3
11 -16 -1z"/>
<path d="M5640 5660 c-9 -6 -10 -10 -3 -10 6 0 15 5 18 10 8 12 4 12 -15 0z"/>
<path d="M5516 5647 c3 -10 9 -15 12 -12 3 3 0 11 -7 18 -10 9 -11 8 -5 -6z"/>
<path d="M5533 5617 c-3 -5 -2 -11 1 -14 3 -4 6 -1 6 6 0 7 4 10 8 7 4 -2 14
-1 22 4 11 7 9 9 -8 7 -13 -1 -26 -5 -29 -10z"/>
<path d="M5570 5580 c0 -5 5 -10 11 -10 5 0 7 5 4 10 -3 6 -8 10 -11 10 -2 0
-4 -4 -4 -10z"/>
<path d="M5630 5570 c-8 -5 -10 -10 -5 -10 6 0 17 5 25 10 8 5 11 10 5 10 -5
0 -17 -5 -25 -10z"/>
<path d="M5687 5566 c-10 -8 -14 -16 -10 -19 5 -3 14 3 21 14 14 22 13 23 -11
5z"/>
<path d="M5753 5563 c4 -3 1 -13 -6 -22 -11 -14 -10 -14 5 -2 16 12 16 31 1
31 -4 0 -3 -3 0 -7z"/>
<path d="M5648 5543 c6 -2 9 -10 6 -15 -4 -7 -2 -8 5 -4 13 9 5 26 -12 25 -9
0 -8 -2 1 -6z"/>
<path d="M5682 5521 c-11 -7 -10 -9 3 -14 10 -4 14 -3 9 4 -4 8 1 9 17 4 19
-5 21 -4 9 4 -18 13 -21 13 -38 2z"/>
<path d="M5810 5521 c0 -6 4 -13 10 -16 6 -3 7 1 4 9 -7 18 -14 21 -14 7z"/>
<path d="M5739 5508 c-6 -21 -5 -37 2 -32 5 3 6 10 3 16 -5 8 -1 9 10 5 10 -4
15 -3 11 3 -5 9 -24 14 -26 8z"/>
<path d="M5780 5496 c0 -2 7 -7 16 -10 8 -3 12 -2 9 4 -6 10 -25 14 -25 6z"/>
<path d="M6066 5482 c-3 -5 1 -9 9 -9 8 0 12 4 9 9 -3 4 -7 8 -9 8 -2 0 -6 -4
-9 -8z"/>
<path d="M5775 5460 c-3 -6 1 -7 9 -4 18 7 21 14 7 14 -6 0 -13 -4 -16 -10z"/>
<path d="M5980 5460 c-12 -7 -10 -9 7 -7 12 0 19 5 17 9 -6 10 -6 10 -24 -2z"/>
<path d="M5853 5442 c1 -12 6 -18 15 -15 7 3 10 9 5 12 -4 3 -11 10 -15 15 -4
4 -6 -1 -5 -12z"/>
<path d="M5911 5437 c-1 -11 -6 -15 -13 -11 -7 5 -8 3 -3 -5 10 -16 29 2 22
21 -4 8 -6 7 -6 -5z"/>
<path d="M5930 5441 c0 -6 4 -13 10 -16 6 -3 7 1 4 9 -7 18 -14 21 -14 7z"/>
<path d="M6035 5420 c-3 -5 -1 -10 4 -10 6 0 11 5 11 10 0 6 -2 10 -4 10 -3 0
-8 -4 -11 -10z"/>
<path d="M5973 5407 c0 -8 6 -14 14 -14 9 0 10 4 2 14 -6 7 -12 13 -14 13 -1
0 -2 -6 -2 -13z"/>
<path d="M5926 5374 c-5 -14 -4 -15 9 -4 17 14 19 20 6 20 -5 0 -12 -7 -15
-16z"/>
<path d="M6055 5370 c-4 -6 -10 -8 -15 -5 -10 6 -7 -21 4 -32 4 -4 6 -1 4 7
-1 8 2 14 8 13 6 -1 11 5 11 13 0 17 -4 18 -12 4z"/>
<path d="M5995 5350 c3 -5 8 -10 11 -10 2 0 4 5 4 10 0 6 -5 10 -11 10 -5 0
-7 -4 -4 -10z"/>
<path d="M6061 5324 c0 -11 3 -14 6 -6 3 7 2 16 -1 19 -3 4 -6 -2 -5 -13z"/>
<path d="M6096 5318 c3 -5 10 -6 15 -3 13 9 11 12 -6 12 -8 0 -12 -4 -9 -9z"/>
<path d="M6165 5250 c-16 -7 -17 -9 -3 -9 9 -1 20 4 23 9 7 11 7 11 -20 0z"/>
<path d="M6290 5239 c0 -5 5 -7 10 -4 6 3 10 8 10 11 0 2 -4 4 -10 4 -5 0 -10
-5 -10 -11z"/>
<path d="M6235 5220 c3 -5 8 -10 11 -10 2 0 4 5 4 10 0 6 -5 10 -11 10 -5 0
-7 -4 -4 -10z"/>
<path d="M6274 5222 c3 -6 -2 -15 -11 -21 -10 -6 -13 -11 -7 -11 20 0 37 27
23 36 -7 4 -9 3 -5 -4z"/>
<path d="M6326 5218 c3 -5 10 -6 15 -3 13 9 11 12 -6 12 -8 0 -12 -4 -9 -9z"/>
<path d="M6230 5180 c8 -5 20 -10 25 -10 6 0 3 5 -5 10 -8 5 -19 10 -25 10 -5
0 -3 -5 5 -10z"/>
<path d="M6370 5179 c0 -5 5 -7 10 -4 6 3 10 8 10 11 0 2 -4 4 -10 4 -5 0 -10
-5 -10 -11z"/>
<path d="M6349 5143 c-13 -16 -12 -17 4 -4 9 7 17 15 17 17 0 8 -8 3 -21 -13z"/>
<path d="M6270 5135 c-11 -13 -10 -14 4 -9 9 3 16 10 16 15 0 13 -6 11 -20 -6z"/>
<path d="M6506 5122 c-3 -5 1 -9 9 -9 8 0 12 4 9 9 -3 4 -7 8 -9 8 -2 0 -6 -4
-9 -8z"/>
<path d="M6355 5050 c-3 -6 1 -7 9 -4 18 7 21 14 7 14 -6 0 -13 -4 -16 -10z"/>
<path d="M6450 5020 c0 -5 5 -10 11 -10 5 0 7 5 4 10 -3 6 -8 10 -11 10 -2 0
-4 -4 -4 -10z"/>
<path d="M6390 5000 c-13 -8 -12 -10 3 -10 9 0 17 5 17 10 0 12 -1 12 -20 0z"/>
<path d="M6420 4985 c0 -2 6 -8 13 -14 10 -8 14 -7 14 2 0 8 -6 14 -14 14 -7
0 -13 -1 -13 -2z"/>
<path d="M6466 4938 c3 -5 10 -6 15 -3 13 9 11 12 -6 12 -8 0 -12 -4 -9 -9z"/>
<path d="M6469 4903 c-13 -16 -12 -17 4 -4 9 7 17 15 17 17 0 8 -8 3 -21 -13z"/>
<path d="M6435 4889 c-4 -6 -5 -12 -2 -15 2 -3 7 2 10 11 7 17 1 20 -8 4z"/>
<path d="M6324 4865 c2 -16 8 -31 14 -33 13 -4 10 16 -5 43 -11 18 -12 17 -9
-10z"/>
<path d="M6475 4881 c-3 -5 -2 -12 3 -15 5 -3 9 1 9 9 0 17 -3 19 -12 6z"/>
<path d="M6445 4859 c-4 -6 -5 -12 -2 -15 2 -3 7 2 10 11 7 17 1 20 -8 4z"/>
<path d="M6430 4820 c0 -5 5 -10 10 -10 6 0 10 5 10 10 0 6 -4 10 -10 10 -5 0
-10 -4 -10 -10z"/>
<path d="M6540 4800 c-9 -6 -10 -10 -3 -10 6 0 15 5 18 10 8 12 4 12 -15 0z"/>
<path d="M6321 4758 c-26 -32 -19 -50 18 -53 16 -1 18 2 10 17 -7 13 -6 20 4
24 7 2 14 11 14 19 0 26 -22 22 -46 -7z m14 -8 c-11 -12 -13 -20 -6 -20 7 0 9
-5 5 -11 -4 -8 -9 -7 -15 2 -7 12 15 49 29 49 3 0 -3 -9 -13 -20z"/>
<path d="M6440 4756 c0 -2 7 -7 16 -10 8 -3 12 -2 9 4 -6 10 -25 14 -25 6z"/>
<path d="M6430 4705 c-7 -9 -11 -17 -9 -20 3 -2 10 5 17 15 14 24 10 26 -8 5z"/>
<path d="M6446 4685 c-9 -26 -7 -32 5 -12 6 10 9 21 6 23 -2 3 -7 -2 -11 -11z"/>
<path d="M6352 4681 c2 -5 -6 -17 -17 -25 -20 -16 -20 -16 -1 -31 11 -8 14
-15 7 -15 -7 0 -9 -5 -6 -11 10 -15 18 -3 20 29 1 15 4 33 8 39 4 6 3 15 -3
18 -6 4 -9 2 -8 -4z"/>
<path d="M1710 4646 c0 -2 7 -7 16 -10 8 -3 12 -2 9 4 -6 10 -25 14 -25 6z"/>
<path d="M6430 4638 c0 -4 4 -8 9 -8 6 0 12 4 15 8 3 5 -1 9 -9 9 -8 0 -15 -4
-15 -9z"/>
<path d="M6496 4642 c-3 -4 4 -9 15 -9 23 -2 25 3 4 10 -8 4 -16 3 -19 -1z"/>
<path d="M6456 4622 c-3 -5 1 -9 9 -9 8 0 12 4 9 9 -3 4 -7 8 -9 8 -2 0 -6 -4
-9 -8z"/>
<path d="M6460 4596 c0 -2 7 -7 16 -10 8 -3 12 -2 9 4 -6 10 -25 14 -25 6z"/>
<path d="M6536 4582 c-3 -5 1 -9 9 -9 8 0 12 4 9 9 -3 4 -7 8 -9 8 -2 0 -6 -4
-9 -8z"/>
<path d="M6345 4560 c-3 -5 -1 -10 4 -10 6 0 11 5 11 10 0 6 -2 10 -4 10 -3 0
-8 -4 -11 -10z"/>
<path d="M6390 4561 c0 -4 6 -8 13 -8 6 0 21 -4 32 -8 14 -5 16 -4 6 3 -11 8
-11 10 0 14 8 3 -1 5 -18 6 -18 0 -33 -3 -33 -7z"/>
<path d="M6475 4561 c-3 -5 -2 -12 3 -15 5 -3 9 1 9 9 0 17 -3 19 -12 6z"/>
<path d="M6510 4539 c0 -5 5 -7 10 -4 6 3 10 8 10 11 0 2 -4 4 -10 4 -5 0 -10
-5 -10 -11z"/>
<path d="M6335 4489 c14 -14 15 -20 5 -17 -19 4 -22 -42 -3 -49 10 -4 11 -9 3
-18 -8 -9 -7 -14 3 -18 10 -4 13 4 12 29 -1 19 1 37 5 39 4 2 6 14 5 26 -1 15
-9 23 -25 26 -23 3 -23 3 -5 -18z m20 -29 c-3 -5 -12 -10 -18 -10 -7 0 -6 4 3
10 19 12 23 12 15 0z"/>
<path d="M6448 4473 c6 -9 19 -17 30 -18 12 -1 19 2 16 7 -4 5 -12 7 -20 4 -8
-3 -14 1 -14 9 0 8 -5 15 -10 15 -7 0 -8 -6 -2 -17z"/>
<path d="M6429 4463 c6 -12 16 -25 22 -28 20 -13 15 0 -9 25 -22 23 -24 23
-13 3z"/>
<path d="M6515 4460 c3 -5 8 -10 11 -10 2 0 4 5 4 10 0 6 -5 10 -11 10 -5 0
-7 -4 -4 -10z"/>
<path d="M6428 4413 c6 -2 18 -2 25 0 6 3 1 5 -13 5 -14 0 -19 -2 -12 -5z"/>
<path d="M6559 4393 c-13 -16 -12 -17 4 -4 16 13 21 21 13 21 -2 0 -10 -8 -17
-17z"/>
<path d="M6342 4344 c-9 -18 -9 -31 -2 -45 6 -11 8 -25 4 -32 -4 -7 -3 -8 2
-4 7 7 15 107 9 107 -1 0 -7 -12 -13 -26z"/>
<path d="M6455 4339 c-4 -6 -5 -12 -2 -15 2 -3 7 2 10 11 7 17 1 20 -8 4z"/>
<path d="M6479 4333 c-13 -16 -12 -17 4 -4 16 13 21 21 13 21 -2 0 -10 -8 -17
-17z"/>
<path d="M6520 4326 c0 -2 8 -10 18 -17 15 -13 16 -12 3 4 -13 16 -21 21 -21
13z"/>
<path d="M6510 4260 c0 -5 5 -10 11 -10 5 0 7 5 4 10 -3 6 -8 10 -11 10 -2 0
-4 -4 -4 -10z"/>
<path d="M6330 4246 c0 -2 7 -9 15 -16 13 -11 14 -10 9 4 -5 14 -24 23 -24 12z"/>
<path d="M6466 4242 c-3 -5 1 -9 9 -9 8 0 15 4 15 9 0 4 -4 8 -9 8 -6 0 -12
-4 -15 -8z"/>
<path d="M6466 4196 c6 -15 4 -17 -6 -11 -9 6 -11 4 -5 -4 5 -9 10 -10 18 -2
8 8 7 14 -2 24 -10 10 -11 8 -5 -7z"/>
<path d="M6530 4141 c0 -6 4 -13 10 -16 6 -3 7 1 4 9 -7 18 -14 21 -14 7z"/>
<path d="M6334 4126 c-18 -14 -18 -15 -1 -21 13 -5 15 -11 7 -20 -7 -9 -7 -14
2 -18 9 -3 13 7 13 34 1 22 0 39 0 39 -1 0 -10 -6 -21 -14z"/>
<path d="M6435 4110 c-26 -28 -15 -31 12 -3 12 13 19 23 14 23 -4 0 -16 -9
-26 -20z"/>
<path d="M1674 4089 c-3 -6 -2 -15 3 -20 5 -5 9 -1 9 11 0 23 -2 24 -12 9z"/>
<path d="M6446 4085 c-3 -8 -1 -15 5 -15 6 0 7 -5 3 -12 -4 -6 -3 -8 4 -5 5 4
8 16 5 27 -6 24 -9 25 -17 5z"/>
<path d="M6530 4080 c0 -5 5 -10 11 -10 5 0 7 5 4 10 -3 6 -8 10 -11 10 -2 0
-4 -4 -4 -10z"/>
<path d="M6490 4056 c0 -2 8 -10 18 -17 15 -13 16 -12 3 4 -13 16 -21 21 -21
13z"/>
<path d="M6342 4028 c-7 -13 -20 -34 -29 -47 -17 -24 -17 -24 4 -19 23 6 38
-13 34 -42 -2 -13 -1 -13 8 0 7 9 6 19 -1 27 -7 9 -7 17 1 27 8 9 8 16 2 20
-5 4 -8 18 -5 31 5 31 1 32 -14 3z m13 -37 c3 -5 0 -13 -6 -17 -8 -5 -9 -3 -4
6 6 10 4 12 -9 7 -10 -4 -15 -3 -11 3 8 13 22 13 30 1z"/>
<path d="M6468 3963 c7 -3 16 -2 19 1 4 3 -2 6 -13 5 -11 0 -14 -3 -6 -6z"/>
<path d="M1715 3889 c-4 -6 -5 -12 -2 -15 2 -3 7 2 10 11 7 17 1 20 -8 4z"/>
<path d="M6440 3894 c0 -6 7 -19 16 -30 14 -18 14 -18 3 6 -14 31 -19 36 -19
24z"/>
<path d="M6420 3873 c0 -6 8 -17 18 -24 16 -13 16 -13 2 6 -8 11 -16 22 -17
24 -2 2 -3 0 -3 -6z"/>
<path d="M6425 3817 c-20 -16 -13 -38 13 -36 15 1 15 2 0 6 -22 5 -24 23 -3
23 8 0 15 5 15 10 0 13 -3 13 -25 -3z"/>
<path d="M6510 3819 c0 -5 5 -7 10 -4 6 3 10 8 10 11 0 2 -4 4 -10 4 -5 0 -10
-5 -10 -11z"/>
<path d="M6461 3813 c-1 -17 16 -25 25 -12 4 7 3 9 -4 5 -5 -3 -13 0 -15 6 -4
9 -6 10 -6 1z"/>
<path d="M6454 3772 c-11 -7 -38 -52 -31 -52 2 0 13 14 25 30 24 31 24 35 6
22z"/>
<path d="M6325 3760 c-3 -5 -4 -14 0 -19 3 -5 1 -12 -4 -16 -6 -3 -1 -16 11
-30 22 -25 40 -27 20 -2 -8 9 -8 17 0 27 8 12 9 12 4 -3 -3 -10 -2 -16 3 -12
5 3 8 -6 7 -20 -2 -16 1 -22 8 -18 6 4 6 0 -1 -9 -7 -8 -9 -19 -5 -23 4 -5 0
-4 -8 0 -13 8 -13 7 0 -11 14 -18 14 -18 -2 -5 -10 7 -15 17 -12 22 3 5 -1 9
-8 9 -10 0 -10 2 1 9 9 6 10 11 2 15 -13 8 -13 8 -16 -22 -1 -14 5 -27 16 -33
11 -5 19 -15 19 -22 0 -8 -3 -8 -9 2 -5 8 -11 9 -15 3 -3 -5 1 -13 9 -16 14
-5 14 -9 0 -33 -8 -16 -23 -39 -32 -52 -17 -24 -17 -24 4 -19 34 9 49 -39 25
-78 -12 -20 -11 -21 12 -21 17 0 23 4 19 14 -5 13 -3 13 16 2 26 -17 27 -24 4
-27 -15 -1 -47 -7 -61 -11 -1 -1 2 -10 8 -22 9 -16 8 -26 -5 -46 -9 -13 -14
-27 -11 -30 3 -4 2 -11 -3 -17 -5 -7 1 -20 15 -36 13 -13 24 -19 24 -13 0 7
-5 15 -10 18 -6 4 -8 10 -5 15 3 5 1 19 -5 31 -11 19 -10 20 9 9 12 -6 21 -13
21 -16 0 -3 -4 -2 -10 1 -6 3 -7 -1 -3 -10 5 -13 7 -14 14 -3 6 9 9 9 9 1 0
-6 -5 -15 -10 -18 -7 -4 -7 -12 0 -25 7 -13 7 -21 0 -25 -8 -5 -7 -12 2 -23
12 -16 11 -16 -7 -2 -19 14 -19 14 -5 -5 14 -19 14 -19 -2 -6 -10 7 -15 17
-12 22 3 5 -1 9 -8 9 -10 0 -10 2 1 9 9 6 10 11 2 15 -13 8 -13 8 -16 -22 -1
-14 5 -27 16 -33 11 -5 19 -15 19 -22 0 -8 -3 -8 -9 2 -5 8 -11 9 -15 3 -3 -5
1 -13 9 -16 14 -5 14 -9 0 -36 -14 -26 -14 -31 -1 -36 12 -5 12 -10 -2 -35
-10 -16 -23 -27 -29 -24 -16 5 -17 -7 -2 -22 6 -6 12 -19 13 -29 3 -22 23 -30
23 -9 0 8 -5 15 -11 15 -5 0 -1 7 10 15 18 14 18 14 -5 10 -13 -2 -21 -1 -17
2 4 4 15 8 26 10 17 2 20 -2 16 -21 -3 -19 -1 -24 13 -21 10 2 18 -3 18 -10 0
-8 -4 -12 -8 -9 -4 2 -14 -5 -22 -17 -11 -14 -16 -17 -20 -7 -2 7 -8 9 -13 5
-5 -5 -1 -13 9 -18 9 -6 15 -15 11 -20 -3 -5 -2 -15 3 -22 11 -16 10 -37 -5
-63 -6 -12 -8 -24 -5 -28 3 -3 1 -6 -6 -6 -7 0 -9 -5 -5 -11 4 -8 9 -7 15 2 7
11 9 11 9 1 0 -7 -7 -15 -15 -18 -8 -4 -12 -10 -9 -15 2 -5 0 -18 -7 -30 -8
-15 -8 -19 0 -15 6 4 11 2 11 -4 0 -6 5 -8 10 -5 8 5 8 11 0 20 -8 9 -8 15 0
20 6 3 8 9 6 13 -2 4 2 15 9 25 8 12 15 14 20 8 3 -6 1 -11 -5 -11 -6 0 -8 -5
-4 -12 4 -6 3 -8 -2 -5 -5 3 -10 -10 -10 -28 0 -20 4 -31 11 -27 5 3 4 -1 -2
-10 -7 -8 -9 -19 -5 -23 4 -5 0 -4 -8 0 -13 8 -13 7 0 -11 14 -17 14 -18 -2
-6 -10 8 -16 19 -15 24 1 6 -3 12 -10 15 -6 2 -10 -3 -9 -13 2 -10 8 -20 15
-22 9 -3 9 -8 -1 -20 -10 -12 -10 -14 0 -8 6 4 12 3 12 -1 0 -5 -9 -14 -21
-21 -11 -7 -18 -19 -15 -27 3 -8 1 -17 -5 -21 -6 -4 -7 -10 0 -17 9 -11 -6
-45 -19 -43 -3 1 -13 -6 -22 -14 -14 -13 -14 -17 -2 -31 12 -14 12 -18 -6 -34
-16 -14 -23 -16 -32 -7 -7 7 -16 12 -22 12 -5 0 0 -9 13 -21 22 -20 23 -20 36
-3 8 11 15 14 15 8 0 -22 -29 -38 -44 -25 -10 8 -16 9 -21 1 -3 -5 -3 -10 2
-10 4 0 1 -5 -7 -10 -13 -9 -13 -10 0 -10 12 -1 11 -3 -3 -11 -9 -6 -15 -14
-12 -20 4 -5 2 -9 -4 -9 -5 0 -12 4 -16 10 -3 5 -13 6 -22 3 -13 -5 -15 -2
-11 15 4 12 3 22 -2 22 -12 0 -20 -29 -10 -35 5 -3 -5 -19 -22 -35 -17 -17
-25 -30 -18 -30 9 0 7 -5 -6 -15 -14 -11 -15 -14 -2 -9 10 3 20 -2 27 -15 9
-16 8 -21 -10 -26 -11 -4 -18 -9 -15 -12 3 -4 1 -12 -6 -20 -8 -10 -8 -17 1
-26 9 -9 14 -9 21 2 4 8 16 16 25 17 9 1 20 5 23 8 12 12 -36 0 -52 -13 -20
-16 -20 -3 -1 23 8 10 19 15 26 10 7 -4 10 -3 6 2 -3 6 3 15 14 22 12 8 19 9
19 1 0 -5 5 -7 11 -3 8 4 7 9 -2 15 -7 4 -17 5 -21 3 -4 -3 -8 -1 -8 4 0 18
13 20 39 6 25 -15 25 -15 4 1 -13 10 -23 22 -23 27 0 6 8 4 17 -3 11 -10 14
-10 9 -1 -4 6 -3 12 2 12 5 0 12 -9 15 -20 3 -11 11 -20 19 -20 10 0 10 2 -1
9 -16 10 -8 41 10 41 8 0 8 -4 -1 -15 -9 -10 -9 -15 -1 -15 6 0 11 5 11 11 0
5 5 7 12 3 7 -5 8 -3 2 7 -13 21 -15 49 -4 49 6 0 11 -4 11 -10 1 -5 2 -15 3
-22 1 -15 23 -22 31 -9 3 6 0 8 -9 5 -10 -4 -13 0 -11 13 2 10 4 20 4 23 1 3
6 -2 12 -10 9 -13 10 -13 6 0 -2 8 -13 14 -23 12 -18 -2 -18 -2 0 13 11 8 23
15 28 15 4 0 8 5 8 12 0 9 -3 9 -12 0 -24 -24 -28 -11 -7 18 17 23 26 27 36
19 9 -8 17 -8 26 0 8 6 17 7 22 3 4 -4 1 3 -6 16 -8 12 -16 22 -20 22 -8 0 -5
38 4 46 4 4 7 3 8 -2 2 -22 8 -46 13 -52 3 -3 4 8 2 25 -2 24 3 35 29 56 21
17 36 23 44 16 6 -5 5 -1 -4 8 -13 15 -15 15 -33 -7 -15 -19 -22 -21 -39 -12
-11 6 -22 9 -25 7 -8 -8 -3 40 6 54 7 11 5 13 -7 8 -30 -11 -18 2 16 18 23 11
27 12 15 2 -10 -8 -15 -17 -11 -20 3 -4 1 -12 -5 -20 -6 -7 -8 -17 -4 -22 13
-18 34 -16 49 5 8 11 18 18 22 16 11 -7 10 27 -1 41 -6 7 -15 10 -20 6 -6 -3
-8 0 -6 8 3 8 13 13 23 11 10 -2 14 1 10 8 -3 6 -12 10 -18 9 -25 -3 -38 1
-32 11 3 5 12 7 19 4 7 -3 18 2 25 10 10 12 8 16 -9 21 -11 3 -18 11 -15 16 3
5 -1 6 -9 3 -10 -4 -13 0 -11 13 2 10 4 20 4 22 1 2 12 -9 26 -25 14 -16 25
-24 25 -18 0 6 -9 19 -20 29 -24 22 -27 43 -3 24 11 -10 14 -10 9 -1 -4 7 -2
12 6 12 8 0 6 5 -5 11 -9 6 -15 15 -11 20 3 6 7 22 9 36 1 15 11 32 21 40 16
12 16 13 1 13 -9 0 -17 -4 -17 -8 0 -10 -36 -9 -46 1 -4 4 -2 8 4 8 7 1 15 3
20 4 4 2 17 6 30 10 12 4 22 11 22 17 0 5 -10 3 -22 -4 -34 -18 -57 -20 -34
-2 11 8 24 14 28 14 5 0 2 10 -6 21 -16 23 -11 53 8 42 6 -3 2 3 -8 15 -17 19
-10 33 8 15 11 -11 46 -14 46 -4 0 6 -9 8 -20 6 -12 -2 -23 2 -27 10 -3 8 -9
13 -13 10 -5 -3 -11 -1 -14 4 -3 5 1 11 9 15 8 3 19 -3 24 -12 7 -10 11 -12
11 -4 0 7 -11 24 -24 37 -14 14 -21 27 -16 30 5 3 18 -7 29 -21 12 -15 21 -22
21 -16 0 6 -5 14 -11 18 -8 4 -7 9 2 16 11 8 10 9 -3 4 -10 -3 -20 -1 -23 4
-8 13 18 18 40 8 19 -9 19 -8 2 6 -11 8 -26 12 -35 8 -15 -5 -15 -4 -3 11 13
17 6 23 -21 18 -5 0 -8 3 -8 9 0 5 6 10 13 10 8 0 7 4 -3 10 -13 8 -13 10 2
10 9 0 20 5 24 11 4 8 -1 9 -17 4 -20 -7 -22 -6 -11 7 7 9 24 14 40 12 27 -4
27 -4 2 5 -14 5 -21 9 -15 10 5 1 -1 8 -13 17 -32 22 -27 38 5 17 15 -10 24
-13 20 -6 -4 6 -3 14 3 18 5 3 10 12 10 18 0 7 -5 4 -11 -5 -5 -10 -15 -18
-20 -18 -6 0 -3 10 5 22 9 12 16 27 16 33 0 5 -8 -2 -18 -18 -10 -15 -21 -24
-25 -21 -3 3 3 18 14 33 12 16 17 34 13 44 -6 17 -8 17 -27 0 -19 -18 -20 -17
-8 4 16 31 28 36 40 16 7 -12 10 -13 11 -4 0 7 -17 29 -37 47 -40 37 -32 47
10 13 21 -16 30 -18 44 -9 15 9 14 10 -7 5 -24 -6 -24 -5 -6 9 11 9 15 16 10
16 -6 0 -15 -5 -21 -11 -8 -8 -13 -8 -17 0 -4 6 -1 11 6 11 7 0 -2 9 -20 20
-22 14 -32 26 -28 36 3 8 2 12 -3 9 -5 -3 -13 0 -16 6 -4 5 -14 8 -24 5 -12
-5 -11 -2 3 9 11 8 21 22 22 31 2 9 8 22 15 28 9 8 9 6 2 -9 -8 -18 -9 -27 -4
-51 0 -4 7 -1 15 5 12 10 14 9 12 -6 -2 -10 2 -22 8 -26 7 -6 4 -7 -6 -3 -22
7 -24 -10 -3 -18 15 -5 17 -2 17 34 0 37 -2 42 -17 37 -8 -4 -17 -2 -20 3 -4
6 -3 10 2 11 4 0 18 2 30 5 14 2 21 -1 19 -9 -1 -6 -1 -9 1 -4 3 4 10 4 16 0
7 -3 9 -3 5 2 -4 4 0 14 10 22 16 12 16 13 -2 6 -15 -5 -17 -3 -11 8 7 12 6
12 -7 1 -16 -13 -58 -25 -58 -17 0 3 17 14 38 25 20 11 30 20 22 19 -30 -3
-38 1 -36 18 2 9 8 19 14 21 8 2 10 -3 6 -15 -5 -15 -4 -15 5 -3 10 15 6 22
-49 79 -14 14 -28 25 -32 23 -8 -2 -12 13 -9 31 2 10 -7 9 -14 -3z m78 -112
c-14 -16 -14 -30 -1 -45 6 -7 7 -13 2 -14 -5 0 -17 -2 -26 -4 -14 -2 -16 1 -9
13 5 10 7 25 6 34 -2 10 1 20 6 24 5 3 4 14 -2 27 l-11 22 23 -22 c17 -16 20
-25 12 -35z m0 -217 c-2 -2 -9 1 -17 8 -11 9 -15 9 -20 -1 -4 -9 -5 -8 -4 2 1
8 -4 26 -11 40 -11 20 -7 18 20 -10 19 -19 33 -37 32 -39z m-13 -74 c-17 -13
-26 -47 -12 -47 4 0 13 5 20 12 21 21 25 0 6 -29 -10 -15 -17 -32 -16 -37 2
-5 -4 -4 -12 3 -9 7 -13 18 -9 24 4 7 -1 8 -13 4 -17 -6 -17 -6 -3 6 15 11 15
15 2 41 -8 16 -10 25 -4 22 6 -4 19 -2 28 3 24 14 31 13 13 -2z m7 -175 c-9
-10 -14 -22 -10 -27 5 -4 2 -5 -5 -1 -9 5 -10 12 -3 20 6 7 6 17 1 26 -13 22
0 34 18 16 14 -14 14 -17 -1 -34z m-11 -59 c0 -10 5 -17 12 -15 6 1 12 -2 12
-8 0 -9 -14 -14 -32 -11 -5 0 -8 -4 -8 -10 0 -6 9 -8 23 -3 22 7 22 6 3 -14
-17 -20 -17 -22 -2 -28 9 -3 16 -10 16 -16 0 -5 -4 -7 -9 -4 -14 9 -21 -20 -8
-33 6 -6 7 -11 3 -11 -5 0 -3 -7 4 -15 9 -10 9 -15 1 -15 -18 0 -26 5 -23 14
5 14 -20 36 -32 29 -6 -4 -3 5 6 19 10 15 14 30 9 33 -6 3 -8 14 -5 25 2 11 6
29 8 40 9 37 25 54 22 23z m24 -239 c0 -2 -11 -14 -25 -28 l-25 -25 4 24 c7
35 15 45 31 38 8 -3 15 -7 15 -9z m-10 -135 c-6 -10 -5 -21 3 -30 7 -7 2 -5
-10 5 -13 11 -23 16 -23 12 0 -4 -5 -4 -10 -1 -7 4 -6 14 2 28 7 12 11 29 9
37 -2 8 6 3 17 -10 14 -17 17 -30 12 -41z m10 51 c0 -5 -4 -10 -10 -10 -5 0
-10 5 -10 10 0 6 5 10 10 10 6 0 10 -4 10 -10z m0 -179 c0 -6 -9 -9 -19 -8
-11 0 -17 5 -15 9 7 11 34 10 34 -1z m-20 -46 c0 -7 -30 -13 -34 -7 -3 4 4 9
15 9 10 1 19 0 19 -2z m26 -38 c11 -10 -36 -56 -51 -51 -10 4 -10 11 1 34 14
26 34 33 50 17z m-49 -91 c2 -2 0 -7 -6 -11 -6 -3 -11 -1 -11 6 0 7 -6 4 -14
-6 -8 -11 -11 -26 -8 -34 4 -11 1 -13 -14 -7 -12 4 -8 -2 10 -17 24 -20 26
-25 13 -30 -9 -3 -19 -2 -23 4 -4 7 -10 6 -19 -1 -8 -7 -15 -7 -19 -1 -4 5 -2
13 4 16 8 5 8 11 0 20 -9 10 -9 19 0 32 9 15 10 14 4 -7 -6 -22 -5 -23 10 -11
9 8 14 16 12 19 -3 2 -1 13 4 23 9 16 43 19 57 5z m-100 -134 c-10 -10 -14
-21 -11 -25 3 -3 -4 -10 -15 -17 -12 -6 -21 -7 -21 -3 0 12 -20 -20 -20 -32 0
-5 4 -4 9 4 5 8 11 9 15 3 7 -11 -18 -24 -49 -26 -29 -1 -66 -41 -52 -55 8 -8
8 -11 0 -11 -10 0 -23 21 -28 46 -2 6 1 18 6 25 7 11 9 11 9 1 0 -7 5 -10 10
-7 6 4 7 11 4 17 -4 6 -2 8 3 5 6 -4 14 1 18 11 6 16 7 16 19 -1 12 -15 15
-15 26 -2 7 8 9 15 4 15 -5 0 -1 5 8 10 10 6 15 19 13 31 -4 18 -2 19 11 8 12
-10 18 -9 32 4 22 23 29 22 9 -1z"/>
<path d="M6373 3285 c0 -8 4 -12 9 -9 5 3 6 10 3 15 -9 13 -12 11 -12 -6z"/>
<path d="M6364 3055 c1 -8 5 -18 9 -21 4 -4 2 -13 -5 -21 -9 -11 -7 -18 7 -31
18 -16 18 -16 6 1 -10 13 -11 20 -2 31 8 10 9 16 1 21 -6 3 -8 10 -5 15 3 5 1
11 -4 14 -5 4 -8 -1 -7 -9z"/>
<path d="M6376 2873 c-6 -14 -5 -15 5 -6 7 7 10 15 7 18 -3 3 -9 -2 -12 -12z"/>
<path d="M6371 2762 c-7 -14 -6 -19 4 -19 7 0 11 7 7 15 -4 11 -1 13 8 7 9 -5
11 -4 6 3 -10 16 -14 15 -25 -6z"/>
<path d="M6377 2516 c-4 -10 -1 -13 8 -9 8 3 12 9 9 14 -7 12 -11 11 -17 -5z"/>
<path d="M6316 2433 c-6 -14 -5 -15 5 -6 7 7 10 15 7 18 -3 3 -9 -2 -12 -12z"/>
<path d="M6292 2386 c4 -5 2 -16 -4 -25 -10 -13 -10 -14 1 -4 7 6 21 9 30 6
18 -7 16 -4 -14 17 -11 8 -17 10 -13 6z"/>
<path d="M6223 2285 c0 -7 6 -11 14 -8 7 3 13 6 13 8 0 2 -6 5 -13 8 -8 3 -14
-1 -14 -8z"/>
<path d="M6137 2224 c-10 -13 -22 -22 -26 -20 -4 3 -8 -1 -8 -9 0 -17 17 -9
35 17 7 10 18 16 23 13 5 -3 6 1 3 9 -7 20 -5 20 -27 -10z"/>
<path d="M6445 3721 c-3 -12 -11 -19 -16 -16 -5 4 -9 1 -9 -4 0 -6 4 -11 10
-11 11 0 34 39 27 47 -3 2 -8 -5 -12 -16z"/>
<path d="M6475 3690 c-4 -6 -10 -8 -14 -6 -4 3 -13 0 -21 -5 -11 -7 -10 -8 8
-6 20 3 56 27 40 27 -4 0 -10 -5 -13 -10z"/>
<path d="M1716 3662 c-3 -5 1 -9 9 -9 8 0 12 4 9 9 -3 4 -7 8 -9 8 -2 0 -6 -4
-9 -8z"/>
<path d="M6460 3636 c0 -2 7 -7 16 -10 8 -3 12 -2 9 4 -6 10 -25 14 -25 6z"/>
<path d="M6536 3622 c-3 -5 1 -9 9 -9 8 0 12 4 9 9 -3 4 -7 8 -9 8 -2 0 -6 -4
-9 -8z"/>
<path d="M6510 3579 c0 -5 5 -7 10 -4 6 3 10 8 10 11 0 2 -4 4 -10 4 -5 0 -10
-5 -10 -11z"/>
<path d="M6453 3532 c-7 -4 -9 -13 -4 -21 6 -9 10 -7 14 8 3 12 4 21 4 21 -1
0 -7 -4 -14 -8z"/>
<path d="M6436 3484 c5 -19 4 -25 -5 -20 -6 4 -11 3 -11 -3 0 -5 8 -9 19 -8
16 1 17 5 9 29 -13 36 -21 37 -12 2z"/>
<path d="M1674 3449 c-3 -6 -2 -15 3 -20 5 -5 9 -1 9 11 0 23 -2 24 -12 9z"/>
<path d="M6550 3438 c0 -4 4 -8 9 -8 6 0 12 4 15 8 3 5 -1 9 -9 9 -8 0 -15 -4
-15 -9z"/>
<path d="M6479 3373 c-13 -16 -12 -17 4 -4 9 7 17 15 17 17 0 8 -8 3 -21 -13z"/>
<path d="M6515 3380 c-3 -5 -1 -10 4 -10 6 0 11 5 11 10 0 6 -2 10 -4 10 -3 0
-8 -4 -11 -10z"/>
<path d="M6510 3299 c0 -5 5 -7 10 -4 6 3 10 8 10 11 0 2 -4 4 -10 4 -5 0 -10
-5 -10 -11z"/>
<path d="M6466 3282 c-3 -5 1 -9 9 -9 8 0 15 4 15 9 0 4 -4 8 -9 8 -6 0 -12
-4 -15 -8z"/>
<path d="M1715 3249 c-4 -6 -5 -12 -2 -15 2 -3 7 2 10 11 7 17 1 20 -8 4z"/>
<path d="M6465 3215 c11 -9 19 -19 18 -23 -1 -4 0 -9 2 -10 2 -2 2 4 1 13 -1
10 -11 22 -22 27 -18 9 -17 8 1 -7z"/>
<path d="M6530 3181 c0 -6 4 -13 10 -16 6 -3 7 1 4 9 -7 18 -14 21 -14 7z"/>
<path d="M6435 3150 c-26 -28 -15 -31 12 -3 12 13 19 23 14 23 -4 0 -16 -9
-26 -20z"/>
<path d="M6446 3125 c-3 -8 -1 -15 5 -15 6 0 7 -5 3 -12 -4 -6 -3 -8 4 -5 5 4
8 16 5 27 -6 24 -9 25 -17 5z"/>
<path d="M6530 3120 c0 -5 5 -10 11 -10 5 0 7 5 4 10 -3 6 -8 10 -11 10 -2 0
-4 -4 -4 -10z"/>
<path d="M6490 3096 c0 -2 8 -10 18 -17 15 -13 16 -12 3 4 -13 16 -21 21 -21
13z"/>
<path d="M1716 3022 c-3 -5 1 -9 9 -9 8 0 12 4 9 9 -3 4 -7 8 -9 8 -2 0 -6 -4
-9 -8z"/>
<path d="M6468 3003 c7 -3 16 -2 19 1 4 3 -2 6 -13 5 -11 0 -14 -3 -6 -6z"/>
<path d="M6440 2934 c0 -6 7 -19 16 -30 14 -18 14 -18 3 6 -14 31 -19 36 -19
24z"/>
<path d="M6353 2903 c0 -9 4 -10 14 -2 7 6 13 12 13 14 0 1 -6 2 -13 2 -8 0
-14 -6 -14 -14z"/>
<path d="M6420 2913 c0 -6 8 -17 18 -24 16 -13 16 -13 2 6 -8 11 -16 22 -17
24 -2 2 -3 0 -3 -6z"/>
<path d="M6485 2880 c-3 -6 1 -7 9 -4 18 7 21 14 7 14 -6 0 -13 -4 -16 -10z"/>
<path d="M6510 2860 c0 -5 5 -10 11 -10 5 0 7 5 4 10 -3 6 -8 10 -11 10 -2 0
-4 -4 -4 -10z"/>
<path d="M6460 2851 c0 -6 4 -13 10 -16 6 -3 7 1 4 9 -7 18 -14 21 -14 7z"/>
<path d="M6453 2812 c-7 -4 -9 -13 -4 -21 6 -9 10 -7 14 8 3 12 4 21 4 21 -1
0 -7 -4 -14 -8z"/>
<path d="M1710 2800 c0 -5 5 -10 10 -10 6 0 10 5 10 10 0 6 -4 10 -10 10 -5 0
-10 -4 -10 -10z"/>
<path d="M6436 2764 c5 -19 4 -25 -5 -20 -6 4 -11 3 -11 -3 0 -5 8 -9 19 -8
16 1 17 5 9 29 -13 36 -21 37 -12 2z"/>
<path d="M6496 2722 c-3 -4 4 -9 15 -9 23 -2 25 3 4 10 -8 4 -16 3 -19 -1z"/>
<path d="M6455 2700 c-3 -6 1 -7 9 -4 18 7 21 14 7 14 -6 0 -13 -4 -16 -10z"/>
<path d="M6431 2690 c0 -8 4 -22 9 -30 12 -18 12 -2 0 25 -6 13 -9 15 -9 5z"/>
<path d="M6536 2662 c-3 -5 1 -9 9 -9 8 0 12 4 9 9 -3 4 -7 8 -9 8 -2 0 -6 -4
-9 -8z"/>
<path d="M6452 2641 c-11 -7 -11 -9 0 -14 9 -3 15 1 15 9 0 8 -1 14 -1 14 -1
0 -7 -4 -14 -9z"/>
<path d="M6434 2609 c-3 -6 -2 -15 3 -20 5 -5 9 -1 9 11 0 23 -2 24 -12 9z"/>
<path d="M6470 2596 c7 -7 13 -7 20 0 6 6 3 10 -10 10 -13 0 -16 -4 -10 -10z"/>
<path d="M6435 2560 c-3 -5 -2 -10 4 -10 5 0 13 5 16 10 3 6 2 10 -4 10 -5 0
-13 -4 -16 -10z"/>
<path d="M6467 2519 c7 -7 15 -10 18 -7 3 3 -2 9 -12 12 -14 6 -15 5 -6 -5z"/>
<path d="M6440 2511 c0 -6 4 -13 10 -16 6 -3 7 1 4 9 -7 18 -14 21 -14 7z"/>
<path d="M6466 2458 c3 -5 10 -6 15 -3 13 9 11 12 -6 12 -8 0 -12 -4 -9 -9z"/>
<path d="M6435 2440 c-3 -5 -1 -10 4 -10 6 0 11 5 11 10 0 6 -2 10 -4 10 -3 0
-8 -4 -11 -10z"/>
<path d="M1793 2423 c4 -3 1 -13 -6 -22 -11 -14 -10 -14 5 -2 16 12 16 31 1
31 -4 0 -3 -3 0 -7z"/>
<path d="M6380 2420 c0 -5 7 -7 15 -4 8 4 15 8 15 10 0 2 -7 4 -15 4 -8 0 -15
-4 -15 -10z"/>
<path d="M6466 2422 c-3 -5 1 -9 9 -9 8 0 12 4 9 9 -3 4 -7 8 -9 8 -2 0 -6 -4
-9 -8z"/>
<path d="M6401 2406 c-20 -11 -21 -14 -7 -19 12 -5 15 -3 10 5 -5 7 -2 9 8 6
9 -4 15 0 15 8 0 8 -1 14 -1 14 -1 -1 -12 -7 -25 -14z"/>
<path d="M1800 2375 c-7 -9 -11 -17 -9 -20 3 -2 10 5 17 15 14 24 10 26 -8 5z"/>
<path d="M1833 2375 c0 -8 4 -12 9 -9 4 3 8 9 8 15 0 5 -4 9 -8 9 -5 0 -9 -7
-9 -15z"/>
<path d="M6383 2364 c8 -9 47 -13 51 -6 2 4 -9 8 -25 8 -17 1 -28 0 -26 -2z"/>
<path d="M1835 2340 c3 -5 8 -10 11 -10 2 0 4 5 4 10 0 6 -5 10 -11 10 -5 0
-7 -4 -4 -10z"/>
<path d="M1910 2335 c-9 -11 -15 -13 -20 -5 -5 8 -9 6 -13 -5 -4 -9 -3 -14 2
-10 5 3 11 1 13 -4 1 -5 11 2 21 15 20 26 17 33 -3 9z"/>
<path d="M6450 2339 c0 -5 5 -7 10 -4 6 3 10 8 10 11 0 2 -4 4 -10 4 -5 0 -10
-5 -10 -11z"/>
<path d="M6419 2338 c-5 -9 -5 -48 -1 -43 6 6 11 45 5 45 -2 0 -4 -1 -4 -2z"/>
<path d="M6309 2314 c6 -12 7 -24 4 -28 -3 -3 -1 -6 5 -6 16 0 15 12 -4 36
-15 18 -15 18 -5 -2z"/>
<path d="M6340 2320 c-9 -6 -10 -10 -3 -10 6 0 15 5 18 10 8 12 4 12 -15 0z"/>
<path d="M6370 2322 c0 -5 7 -9 15 -9 8 0 12 4 9 9 -3 4 -9 8 -15 8 -5 0 -9
-4 -9 -8z"/>
<path d="M1815 2300 c3 -5 8 -10 11 -10 2 0 4 5 4 10 0 6 -5 10 -11 10 -5 0
-7 -4 -4 -10z"/>
<path d="M1910 2301 c0 -5 5 -13 10 -16 6 -3 10 -2 10 4 0 5 -4 13 -10 16 -5
3 -10 2 -10 -4z"/>
<path d="M6550 2300 c0 -5 5 -10 11 -10 5 0 7 5 4 10 -3 6 -8 10 -11 10 -2 0
-4 -4 -4 -10z"/>
<path d="M1855 2289 c-4 -6 -5 -12 -2 -15 2 -3 7 2 10 11 7 17 1 20 -8 4z"/>
<path d="M6350 2289 c0 -5 5 -7 10 -4 6 3 10 8 10 11 0 2 -4 4 -10 4 -5 0 -10
-5 -10 -11z"/>
<path d="M1873 2267 c0 -8 6 -14 14 -14 9 0 10 4 2 14 -6 7 -12 13 -14 13 -1
0 -2 -6 -2 -13z"/>
<path d="M6297 2269 c7 -7 15 -10 18 -7 3 3 -2 9 -12 12 -14 6 -15 5 -6 -5z"/>
<path d="M6410 2259 c0 -5 5 -7 10 -4 6 3 10 8 10 11 0 2 -4 4 -10 4 -5 0 -10
-5 -10 -11z"/>
<path d="M1950 2243 c0 -5 5 -15 10 -23 7 -12 9 -10 7 8 -1 19 -17 33 -17 15z"/>
<path d="M6350 2239 c0 -5 5 -7 10 -4 6 3 10 8 10 11 0 2 -4 4 -10 4 -5 0 -10
-5 -10 -11z"/>
<path d="M1855 2220 c-3 -5 -1 -10 4 -10 6 0 11 5 11 10 0 6 -2 10 -4 10 -3 0
-8 -4 -11 -10z"/>
<path d="M1935 2210 c-4 -6 -12 -7 -18 -4 -7 4 -8 3 -4 -1 13 -15 34 -14 34 1
0 17 -4 18 -12 4z"/>
<path d="M1985 2207 c-14 -11 -15 -16 -5 -22 9 -6 11 -4 5 5 -6 10 -4 12 9 7
9 -4 15 -3 11 2 -3 5 1 12 7 14 7 3 8 6 2 6 -5 1 -18 -5 -29 -12z"/>
<path d="M6284 2198 c-12 -14 -13 -18 -3 -10 9 6 18 10 21 7 2 -3 5 2 5 10 0
19 0 19 -23 -7z"/>
<path d="M6435 2200 c-3 -5 -1 -10 4 -10 6 0 11 5 11 10 0 6 -2 10 -4 10 -3 0
-8 -4 -11 -10z"/>
<path d="M6236 2181 c-3 -4 3 -16 13 -25 14 -13 18 -14 18 -2 0 8 -3 15 -6 14
-19 -2 -24 4 -11 12 9 6 10 10 3 10 -6 0 -14 -4 -17 -9z"/>
<path d="M1915 2161 c-3 -5 -2 -12 3 -15 5 -3 9 1 9 9 0 17 -3 19 -12 6z"/>
<path d="M1945 2160 c-3 -6 1 -7 9 -4 18 7 21 14 7 14 -6 0 -13 -4 -16 -10z"/>
<path d="M2010 2161 c0 -6 4 -12 8 -15 5 -3 9 1 9 9 0 8 -4 15 -9 15 -4 0 -8
-4 -8 -9z"/>
<path d="M6176 2142 c-2 -4 0 -14 6 -22 8 -12 9 -12 5 2 -3 9 -1 19 6 22 9 3
9 5 0 5 -6 1 -14 -3 -17 -7z"/>
<path d="M6315 2141 c-3 -5 -2 -12 3 -15 5 -3 9 1 9 9 0 17 -3 19 -12 6z"/>
<path d="M6250 2121 c0 -6 4 -13 10 -16 6 -3 7 1 4 9 -7 18 -14 21 -14 7z"/>
<path d="M1990 2100 c0 -5 5 -10 11 -10 5 0 7 5 4 10 -3 6 -8 10 -11 10 -2 0
-4 -4 -4 -10z"/>
<path d="M6150 2106 c0 -2 7 -7 16 -10 8 -3 12 -2 9 4 -6 10 -25 14 -25 6z"/>
<path d="M2151 2084 c0 -11 3 -14 6 -6 3 7 2 16 -1 19 -3 4 -6 -2 -5 -13z"/>
<path d="M6196 2087 c3 -10 9 -15 12 -12 3 3 0 11 -7 18 -10 9 -11 8 -5 -6z"/>
<path d="M6130 2086 c0 -2 7 -7 16 -10 8 -3 12 -2 9 4 -6 10 -25 14 -25 6z"/>
<path d="M6056 2057 c3 -10 9 -15 12 -12 3 3 0 11 -7 18 -10 9 -11 8 -5 -6z"/>
<path d="M6091 2044 c0 -11 3 -14 6 -6 3 7 2 16 -1 19 -3 4 -6 -2 -5 -13z"/>
<path d="M2100 2046 c0 -2 8 -10 18 -17 15 -13 16 -12 3 4 -13 16 -21 21 -21
13z"/>
<path d="M2160 2040 c-9 -6 -10 -10 -3 -10 6 0 15 5 18 10 8 12 4 12 -15 0z"/>
<path d="M2221 2040 c-9 -5 -4 -7 13 -7 29 0 32 2 13 10 -8 3 -20 2 -26 -3z"/>
<path d="M2283 2034 c-15 -16 -16 -24 -4 -24 8 0 24 30 19 35 -2 2 -9 -3 -15
-11z"/>
<path d="M6010 2040 c0 -5 5 -10 10 -10 6 0 10 5 10 10 0 6 -4 10 -10 10 -5 0
-10 -4 -10 -10z"/>
<path d="M5990 2031 c0 -6 4 -13 10 -16 6 -3 7 1 4 9 -7 18 -14 21 -14 7z"/>
<path d="M6030 2017 c0 -2 6 -10 14 -16 11 -9 16 -9 22 1 4 7 4 10 -1 6 -4 -4
-14 -3 -22 3 -7 6 -13 9 -13 6z"/>
<path d="M2150 1999 c0 -5 5 -7 10 -4 6 3 10 8 10 11 0 2 -4 4 -10 4 -5 0 -10
-5 -10 -11z"/>
<path d="M2240 2000 c-9 -6 -10 -10 -3 -10 6 0 15 5 18 10 8 12 4 12 -15 0z"/>
<path d="M2295 2000 c-3 -6 1 -7 9 -4 18 7 21 14 7 14 -6 0 -13 -4 -16 -10z"/>
<path d="M5970 2000 c0 -5 5 -10 10 -10 6 0 10 5 10 10 0 6 -4 10 -10 10 -5 0
-10 -4 -10 -10z"/>
<path d="M2266 1983 c-6 -14 -5 -15 5 -6 7 7 10 15 7 18 -3 3 -9 -2 -12 -12z"/>
<path d="M5910 1990 c0 -6 7 -10 15 -10 8 0 15 2 15 4 0 2 -7 6 -15 10 -8 3
-15 1 -15 -4z"/>
<path d="M2313 1972 c0 -11 5 -18 9 -16 4 3 8 0 8 -7 0 -7 3 -10 6 -6 3 3 -1
16 -9 28 -16 22 -16 22 -14 1z"/>
<path d="M5882 1958 c-7 -7 -12 -17 -12 -22 0 -6 5 -3 11 7 6 9 14 15 20 12 5
-4 9 -1 9 4 0 14 -13 14 -28 -1z"/>
<path d="M6006 1958 c3 -5 10 -6 15 -3 13 9 11 12 -6 12 -8 0 -12 -4 -9 -9z"/>
<path d="M2275 1940 c3 -5 8 -10 11 -10 2 0 4 5 4 10 0 6 -5 10 -11 10 -5 0
-7 -4 -4 -10z"/>
<path d="M2350 1930 c-9 -6 -10 -10 -3 -10 6 0 15 5 18 10 8 12 4 12 -15 0z"/>
<path d="M5817 1926 c-4 -11 -5 -21 -2 -24 3 -3 5 0 5 7 0 7 4 10 9 6 5 -3 13
0 17 6 4 7 3 9 -4 5 -5 -3 -12 -1 -14 6 -3 7 -7 5 -11 -6z"/>
<path d="M5916 1927 c3 -10 9 -15 12 -12 3 3 0 11 -7 18 -10 9 -11 8 -5 -6z"/>
<path d="M5966 1922 c-3 -5 1 -9 9 -9 8 0 12 4 9 9 -3 4 -7 8 -9 8 -2 0 -6 -4
-9 -8z"/>
<path d="M2276 1898 c3 -4 11 -5 19 -1 21 7 19 12 -4 10 -11 0 -18 -5 -15 -9z"/>
<path d="M2412 1900 c2 -8 -3 -14 -9 -12 -7 1 -13 -2 -13 -7 0 -6 8 -9 19 -8
18 1 22 19 7 34 -4 4 -6 1 -4 -7z"/>
<path d="M5794 1881 c0 -16 4 -27 8 -25 4 2 5 14 3 26 -7 32 -13 32 -11 -1z"/>
<path d="M5730 1885 c0 -8 2 -15 4 -15 2 0 6 7 10 15 3 8 1 15 -4 15 -6 0 -10
-7 -10 -15z"/>
<path d="M2360 1875 c-7 -9 -11 -17 -9 -20 3 -2 10 5 17 15 14 24 10 26 -8 5z"/>
<path d="M5755 1880 c-3 -5 -3 -10 2 -10 4 0 1 -5 -7 -10 -12 -7 -10 -9 7 -7
16 1 19 5 12 13 -7 8 -6 14 3 17 9 4 9 6 1 6 -6 1 -15 -3 -18 -9z"/>
<path d="M2455 1869 c-4 -6 -5 -12 -2 -15 2 -3 7 2 10 11 7 17 1 20 -8 4z"/>
<path d="M2553 1852 c0 -11 5 -18 9 -16 4 3 8 0 8 -7 0 -7 3 -10 6 -6 3 3 -1
16 -9 28 -16 22 -16 22 -14 1z"/>
<path d="M2517 1849 c7 -7 15 -10 18 -7 3 3 -2 9 -12 12 -14 6 -15 5 -6 -5z"/>
<path d="M2416 1821 c-3 -5 2 -15 12 -22 15 -12 16 -12 5 2 -7 9 -10 19 -6 22
3 4 4 7 0 7 -3 0 -8 -4 -11 -9z"/>
<path d="M5707 1813 c3 -7 6 -13 8 -13 2 0 5 6 8 13 3 8 -1 14 -8 14 -7 0 -11
-6 -8 -14z"/>
<path d="M2496 1798 c3 -5 10 -6 15 -3 13 9 11 12 -6 12 -8 0 -12 -4 -9 -9z"/>
<path d="M5650 1802 c0 -5 7 -9 15 -9 8 0 12 4 9 9 -3 4 -9 8 -15 8 -5 0 -9
-4 -9 -8z"/>
<path d="M5590 1783 c0 -6 8 -17 18 -24 16 -13 16 -13 2 6 -8 11 -16 22 -17
24 -2 2 -3 0 -3 -6z"/>
<path d="M5656 1767 c3 -10 9 -15 12 -12 3 3 0 11 -7 18 -10 9 -11 8 -5 -6z"/>
<path d="M2894 1755 c1 -8 8 -21 16 -28 12 -10 12 -9 2 4 -6 9 -9 18 -6 21 3
3 1 9 -4 12 -6 3 -9 -1 -8 -9z"/>
<path d="M5560 1766 c0 -2 7 -9 15 -16 13 -11 14 -10 9 4 -5 14 -24 23 -24 12z"/>
<path d="M2635 1750 c-4 -6 -11 -7 -17 -4 -7 4 -8 2 -4 -5 6 -9 11 -9 22 0 14
11 18 19 10 19 -3 0 -8 -5 -11 -10z"/>
<path d="M5550 1741 c0 -6 4 -13 10 -16 6 -3 7 1 4 9 -7 18 -14 21 -14 7z"/>
<path d="M5700 1740 c8 -5 20 -10 25 -10 6 0 3 5 -5 10 -8 5 -19 10 -25 10 -5
0 -3 -5 5 -10z"/>
<path d="M2649 1723 c-13 -16 -12 -17 4 -4 9 7 17 15 17 17 0 8 -8 3 -21 -13z"/>
<path d="M2759 1733 c0 -5 -2 -16 -4 -25 -2 -10 0 -18 5 -18 4 0 8 11 8 25 0
22 -7 36 -9 18z"/>
<path d="M5633 1725 c0 -8 4 -12 9 -9 5 3 6 10 3 15 -9 13 -12 11 -12 -6z"/>
<path d="M2936 1721 c3 -3 13 -6 22 -6 9 0 16 -6 14 -13 -1 -8 2 -11 8 -7 5 3
13 -1 16 -9 3 -9 10 -14 14 -11 5 3 11 1 15 -5 4 -6 11 -8 16 -5 5 4 9 1 9 -6
0 -7 3 -9 7 -6 9 9 -27 48 -38 41 -5 -3 -9 0 -9 6 0 6 -4 9 -9 6 -5 -3 -14 1
-21 8 -6 8 -20 14 -30 13 -11 -1 -17 -4 -14 -6z"/>
<path d="M5450 1727 c0 -3 15 -10 32 -16 18 -6 28 -7 23 -2 -12 10 -55 25 -55
18z"/>
<path d="M2788 1713 c6 -2 18 -2 25 0 6 3 1 5 -13 5 -14 0 -19 -2 -12 -5z"/>
<path d="M2615 1701 c-3 -5 -2 -12 3 -15 5 -3 9 1 9 9 0 17 -3 19 -12 6z"/>
<path d="M2830 1700 c0 -6 4 -9 9 -6 5 4 12 1 14 -4 3 -6 4 -5 3 2 -3 15 -26
23 -26 8z"/>
<path d="M5437 1703 c-10 -10 -8 -23 4 -23 5 0 7 5 3 12 -5 8 -2 9 10 5 10 -4
15 -3 11 3 -7 12 -19 13 -28 3z"/>
<path d="M2808 1683 c6 -2 10 -9 7 -14 -4 -5 1 -6 10 -2 13 5 14 7 3 14 -7 5
-17 8 -23 8 -5 0 -4 -3 3 -6z"/>
<path d="M5486 1678 c3 -5 10 -6 15 -3 13 9 11 12 -6 12 -8 0 -12 -4 -9 -9z"/>
<path d="M2906 1645 c-9 -26 -7 -32 5 -12 6 10 9 21 6 23 -2 3 -7 -2 -11 -11z"/>
<path d="M2846 1642 c-3 -5 1 -9 9 -9 8 0 15 4 15 9 0 4 -4 8 -9 8 -6 0 -12
-4 -15 -8z"/>
<path d="M5375 1641 c-3 -5 -2 -12 3 -15 5 -3 9 1 9 9 0 17 -3 19 -12 6z"/>
<path d="M5415 1639 c-3 -4 2 -6 10 -5 21 3 28 13 10 13 -9 0 -18 -4 -20 -8z"/>
<path d="M2879 1628 c-5 -16 -4 -46 2 -42 4 2 7 13 6 24 -1 17 -5 26 -8 18z"/>
<path d="M2944 1618 c-4 -7 -4 -10 1 -6 4 4 14 0 21 -10 7 -9 14 -15 17 -12 2
3 -4 13 -13 23 -14 15 -20 16 -26 5z"/>
<path d="M5354 1600 c0 -13 4 -16 10 -10 7 7 7 13 0 20 -6 6 -10 3 -10 -10z"/>
<path d="M5435 1609 c-4 -6 -5 -12 -2 -15 2 -3 7 2 10 11 7 17 1 20 -8 4z"/>
<path d="M5277 1589 c7 -7 15 -10 18 -7 3 3 -2 9 -12 12 -14 6 -15 5 -6 -5z"/>
<path d="M2990 1580 c-9 -6 -10 -10 -3 -10 6 0 15 5 18 10 8 12 4 12 -15 0z"/>
<path d="M5316 1578 c3 -5 10 -6 15 -3 13 9 11 12 -6 12 -8 0 -12 -4 -9 -9z"/>
<path d="M3005 1560 c-3 -5 -1 -10 4 -10 6 0 11 5 11 10 0 6 -2 10 -4 10 -3 0
-8 -4 -11 -10z"/>
<path d="M3033 1543 c4 -3 1 -13 -6 -22 -11 -14 -10 -14 6 -2 20 15 22 31 5
31 -6 0 -8 -3 -5 -7z"/>
<path d="M3081 1524 c0 -11 3 -14 6 -6 3 7 2 16 -1 19 -3 4 -6 -2 -5 -13z"/>
<path d="M5100 1520 c-12 -23 -13 -22 17 -25 16 -2 20 2 15 13 -4 11 -7 12
-10 4 -2 -7 -8 -12 -13 -12 -6 0 -5 8 1 20 6 11 8 20 6 20 -3 0 -10 -9 -16
-20z"/>
<path d="M5256 1527 c3 -10 9 -15 12 -12 3 3 0 11 -7 18 -10 9 -11 8 -5 -6z"/>
<path d="M5145 1520 c-3 -6 1 -7 9 -4 18 7 21 14 7 14 -6 0 -13 -4 -16 -10z"/>
<path d="M3067 1499 c7 -7 15 -10 18 -7 3 3 -2 9 -12 12 -14 6 -15 5 -6 -5z"/>
<path d="M5167 1499 c7 -7 15 -10 18 -7 3 3 -2 9 -12 12 -14 6 -15 5 -6 -5z"/>
<path d="M5230 1499 c0 -5 5 -7 10 -4 6 3 10 8 10 11 0 2 -4 4 -10 4 -5 0 -10
-5 -10 -11z"/>
<path d="M5070 1480 c-9 -6 -10 -10 -3 -10 6 0 15 5 18 10 8 12 4 12 -15 0z"/>
<path d="M5150 1481 c0 -6 4 -13 10 -16 6 -3 7 1 4 9 -7 18 -14 21 -14 7z"/>
<path d="M3055 1460 c3 -5 8 -10 11 -10 2 0 4 5 4 10 0 6 -5 10 -11 10 -5 0
-7 -4 -4 -10z"/>
<path d="M3190 1465 c0 -5 5 -17 10 -25 5 -8 10 -10 10 -5 0 6 -5 17 -10 25
-5 8 -10 11 -10 5z"/>
<path d="M5032 1441 c-6 -17 -9 -31 -6 -31 7 0 25 52 20 57 -2 2 -8 -10 -14
-26z"/>
<path d="M5085 1459 c-4 -6 -5 -12 -2 -15 2 -3 7 2 10 11 7 17 1 20 -8 4z"/>
<path d="M5055 1441 c-3 -5 -2 -12 3 -15 5 -3 9 1 9 9 0 17 -3 19 -12 6z"/>
<path d="M5096 1433 c-6 -14 -5 -15 5 -6 7 7 10 15 7 18 -3 3 -9 -2 -12 -12z"/>
<path d="M4755 1412 c-3 -8 -3 -18 0 -22 3 -5 0 -12 -6 -16 -8 -5 -9 -3 -4 5
5 10 2 9 -13 0 -12 -7 -20 -15 -19 -18 3 -11 -30 -51 -36 -45 -3 4 2 14 11 23
12 10 12 13 2 6 -12 -7 -13 -6 -3 4 6 7 9 21 6 30 -3 11 -2 12 4 4 7 -10 13
-10 29 1 14 11 16 18 8 26 -14 14 -76 -44 -68 -65 4 -10 -2 -13 -22 -10 -31 3
-71 -22 -132 -82 -40 -41 -71 -58 -56 -30 5 9 4 9 -6 0 -7 -6 -18 -9 -25 -7
-7 3 -16 1 -19 -5 -4 -6 -13 -8 -21 -4 -8 3 -15 0 -15 -7 0 -6 4 -9 8 -6 12 7
38 -12 29 -21 -5 -4 -11 -3 -15 2 -12 17 -32 16 -44 -4 -6 -11 -19 -17 -27
-14 -12 4 -13 3 -3 -4 10 -8 10 -12 -2 -22 -11 -9 -18 -7 -34 14 -13 17 -22
21 -24 13 -4 -10 -13 -9 -41 4 -36 17 -37 17 -37 -2 0 -10 -5 -22 -11 -25 -7
-5 -5 -13 5 -24 9 -10 13 -21 9 -26 -5 -4 2 -5 15 -2 12 3 22 1 22 -4 0 -5 -5
-9 -11 -9 -5 0 -7 -5 -4 -11 4 -6 13 -8 20 -5 7 2 22 -2 34 -10 15 -11 26 -12
38 -5 16 9 15 10 -6 8 -13 -1 -26 4 -29 12 -3 9 0 11 7 7 7 -4 18 -3 25 3 10
9 15 8 20 -4 4 -13 10 -14 26 -5 11 6 18 15 15 21 -4 5 -1 9 4 9 6 0 11 -6 11
-14 0 -8 4 -18 10 -21 5 -3 7 0 4 9 -4 11 0 14 15 11 11 -2 24 1 27 7 4 6 3 9
-2 6 -8 -4 -44 25 -44 37 -1 17 -13 34 -21 29 -5 -3 -9 -1 -9 5 0 5 9 9 19 8
11 0 19 -6 18 -12 -1 -5 6 -9 16 -9 13 1 16 -3 12 -16 -11 -35 17 -33 47 4 32
39 48 46 48 20 0 -9 -5 -12 -12 -8 -7 5 -8 3 -3 -6 6 -10 11 -9 22 5 10 15 10
20 0 27 -18 11 -19 11 -50 -17 -15 -14 -27 -25 -28 -23 0 2 -2 14 -5 27 -4 20
-2 22 11 11 12 -10 16 -9 21 4 3 9 13 16 21 16 9 0 13 6 10 13 -3 8 1 14 9 14
7 0 11 -4 8 -9 -3 -5 6 -18 20 -29 15 -11 24 -24 21 -29 -3 -4 1 -10 8 -13 7
-3 13 3 13 13 0 10 -3 18 -6 17 -3 -1 -15 7 -27 17 -21 19 -22 36 -2 36 6 0 7
-5 3 -11 -3 -6 7 -4 22 4 16 8 36 12 44 10 12 -4 12 -3 1 5 -8 6 -9 12 -3 16
6 3 8 16 5 29 -4 21 -4 21 11 4 8 -11 12 -26 9 -35 -4 -15 -3 -15 6 -2 9 12
11 13 11 1 0 -8 3 -11 6 -8 4 4 -1 18 -10 32 -20 30 -4 34 17 5 12 -17 16 -18
20 -6 4 9 2 18 -3 21 -6 4 -10 11 -10 17 0 6 10 3 22 -8 22 -19 22 -19 8 0
-14 18 -13 19 4 13 12 -5 26 -1 37 9 16 14 20 14 46 -1 22 -14 24 -14 9 -1
-19 15 -19 16 0 22 10 4 30 16 44 27 17 14 19 18 7 14 -13 -5 -17 -3 -14 5 2
7 0 21 -5 31 -11 21 -65 20 -73 -1z m61 -4 c17 -24 10 -53 -13 -56 -13 -2 -23
-7 -23 -12 0 -5 -6 -7 -14 -4 -7 3 -21 -2 -30 -11 -24 -24 -39 -8 -19 20 10
12 23 20 28 17 18 -12 32 -10 32 4 0 11 -4 11 -16 2 -13 -10 -14 -10 -4 1 6 7
9 21 5 30 -5 14 -3 14 12 -1 9 -10 23 -18 29 -18 7 0 4 5 -6 11 -9 6 -15 14
-12 20 8 13 21 11 31 -3z m-172 -89 c4 6 12 9 17 5 5 -3 7 -10 3 -15 -3 -5 -2
-16 3 -22 4 -7 0 -5 -9 5 -10 12 -19 15 -23 8 -3 -6 -10 -8 -15 -5 -5 3 -14
-3 -19 -14 -8 -14 -8 -20 1 -23 7 -3 0 -13 -16 -24 -22 -13 -31 -15 -34 -6 -2
7 -9 9 -15 5 -20 -12 -36 -12 -31 0 7 17 93 82 105 80 5 -2 9 3 9 10 0 9 3 8
9 -2 6 -9 11 -10 15 -2z m-211 -122 c6 4 23 8 37 9 l25 3 -23 -13 c-12 -6 -19
-16 -15 -21 4 -4 1 -4 -7 1 -8 5 -19 9 -24 9 -5 0 -10 6 -12 13 -1 7 0 8 3 2
2 -5 10 -7 16 -3z m-9 -35 c2 -4 -5 -9 -17 -9 -17 -2 -19 0 -7 7 18 12 18 12
24 2z m-215 -9 c-4 -23 2 -43 11 -38 5 3 7 13 4 23 -5 14 -4 15 5 2 6 -8 11
-11 11 -5 0 5 5 4 11 -2 6 -6 17 -9 24 -7 7 3 16 0 20 -6 5 -8 15 -4 33 12 14
13 22 17 18 10 -6 -9 -2 -12 10 -10 11 2 18 -2 16 -10 -1 -7 5 -15 13 -18 8
-4 15 -10 15 -15 0 -6 -9 -5 -20 1 -11 6 -26 8 -32 4 -7 -5 -9 -2 -5 9 3 9 1
19 -6 23 -7 4 -9 4 -5 -1 4 -4 3 -17 -3 -28 -7 -13 -7 -17 -1 -13 6 3 13 2 16
-3 3 -5 0 -11 -8 -14 -8 -3 -17 1 -20 10 -5 12 -9 13 -21 3 -9 -7 -18 -10 -22
-6 -4 3 1 12 10 19 15 11 14 12 -12 12 -16 1 -27 -3 -24 -9 4 -5 1 -6 -7 -1
-9 5 -11 4 -6 -4 4 -6 12 -8 18 -5 6 4 9 1 6 -6 -6 -20 -36 -21 -34 -1 0 9 -4
15 -11 14 -21 -4 -35 24 -23 46 11 21 21 28 19 14z m231 -33 c0 -5 -4 -10 -10
-10 -5 0 -10 5 -10 10 0 6 5 10 10 10 6 0 10 -4 10 -10z"/>
<path d="M4790 1406 c0 -2 7 -7 16 -10 8 -3 12 -2 9 4 -6 10 -25 14 -25 6z"/>
<path d="M4719 1333 c-13 -16 -12 -17 4 -4 16 13 21 21 13 21 -2 0 -10 -8 -17
-17z"/>
<path d="M4559 1269 c-24 -23 -37 -36 -28 -30 10 7 19 7 26 0 7 -7 14 -5 23 6
7 8 9 15 5 15 -4 0 0 11 9 25 23 35 15 31 -35 -16z m16 -6 c-2 -10 -4 -19 -4
-21 -1 -2 -6 0 -11 3 -8 5 -7 11 1 21 15 18 18 18 14 -3z"/>
<path d="M4190 1121 c0 -6 4 -13 10 -16 6 -3 7 1 4 9 -7 18 -14 21 -14 7z"/>
<path d="M4229 1113 c-12 -16 -12 -17 2 -6 9 7 20 9 24 5 5 -4 5 -1 1 6 -9 16
-11 15 -27 -5z"/>
<path d="M4315 1109 c-4 -6 -5 -12 -2 -15 2 -3 7 2 10 11 7 17 1 20 -8 4z"/>
<path d="M5125 1420 c-3 -6 1 -7 9 -4 18 7 21 14 7 14 -6 0 -13 -4 -16 -10z"/>
<path d="M3235 1410 c3 -5 8 -10 11 -10 2 0 4 5 4 10 0 6 -5 10 -11 10 -5 0
-7 -4 -4 -10z"/>
<path d="M4953 1395 c0 -8 4 -12 9 -9 4 3 8 9 8 15 0 5 -4 9 -8 9 -5 0 -9 -7
-9 -15z"/>
<path d="M5095 1400 c-3 -5 -1 -10 4 -10 6 0 11 5 11 10 0 6 -2 10 -4 10 -3 0
-8 -4 -11 -10z"/>
<path d="M3294 1365 c0 -13 3 -22 7 -19 8 4 6 30 -2 38 -3 3 -5 -5 -5 -19z"/>
<path d="M3380 1370 c-7 -4 -18 -7 -24 -6 -6 2 -7 1 -3 -2 4 -2 2 -11 -5 -20
-7 -9 0 -6 16 6 32 25 51 21 20 -4 -18 -14 -18 -15 4 -4 22 11 28 25 14 34 -4
2 -14 1 -22 -4z"/>
<path d="M4970 1377 c0 -2 6 -10 14 -16 11 -9 16 -9 22 1 4 7 4 10 -1 6 -4 -4
-14 -3 -22 3 -7 6 -13 9 -13 6z"/>
<path d="M3210 1360 c0 -5 5 -10 11 -10 5 0 7 5 4 10 -3 6 -8 10 -11 10 -2 0
-4 -4 -4 -10z"/>
<path d="M3416 1341 c-3 -5 6 -8 20 -8 19 0 22 2 13 8 -18 11 -26 11 -33 0z"/>
<path d="M4866 1323 l-17 -28 19 22 c11 12 23 19 27 15 5 -4 5 -1 1 6 -10 17
-11 16 -30 -15z"/>
<path d="M4830 1331 c0 -7 -5 -9 -12 -5 -7 5 -8 3 -3 -5 5 -9 10 -10 18 -2 6
6 8 14 4 18 -4 3 -7 1 -7 -6z"/>
<path d="M4947 1319 c7 -7 15 -10 18 -7 3 3 -2 9 -12 12 -14 6 -15 5 -6 -5z"/>
<path d="M4995 1320 c3 -5 8 -10 11 -10 2 0 4 5 4 10 0 6 -5 10 -11 10 -5 0
-7 -4 -4 -10z"/>
<path d="M3355 1300 c-3 -5 -1 -10 4 -10 6 0 11 5 11 10 0 6 -2 10 -4 10 -3 0
-8 -4 -11 -10z"/>
<path d="M4750 1300 c0 -5 5 -10 10 -10 6 0 10 5 10 10 0 6 -4 10 -10 10 -5 0
-10 -4 -10 -10z"/>
<path d="M3470 1285 c0 -8 4 -15 10 -15 5 0 7 7 4 15 -4 8 -8 15 -10 15 -2 0
-4 -7 -4 -15z"/>
<path d="M4819 1298 c-5 -18 -6 -38 -1 -34 7 8 12 36 6 36 -2 0 -4 -1 -5 -2z"/>
<path d="M3515 1280 c3 -5 11 -10 16 -10 6 0 7 5 4 10 -3 6 -11 10 -16 10 -6
0 -7 -4 -4 -10z"/>
<path d="M4720 1275 c0 -8 -5 -14 -12 -12 -7 1 -13 -8 -14 -20 -1 -12 2 -20 7
-17 4 2 5 12 2 21 -4 11 -2 14 5 9 6 -3 16 3 22 14 7 13 7 20 0 20 -5 0 -10
-7 -10 -15z"/>
<path d="M4780 1279 c0 -5 5 -7 10 -4 6 3 10 8 10 11 0 2 -4 4 -10 4 -5 0 -10
-5 -10 -11z"/>
<path d="M4465 1270 c4 -6 11 -8 16 -5 14 9 11 15 -7 15 -8 0 -12 -5 -9 -10z"/>
<path d="M3496 1261 c-9 -15 23 -36 35 -24 8 8 6 11 -7 10 -11 -1 -18 4 -16
11 2 14 -4 16 -12 3z"/>
<path d="M4875 1260 c3 -5 8 -10 11 -10 2 0 4 5 4 10 0 6 -5 10 -11 10 -5 0
-7 -4 -4 -10z"/>
<path d="M4750 1241 c0 -6 4 -13 10 -16 6 -3 7 1 4 9 -7 18 -14 21 -14 7z"/>
<path d="M4840 1235 c-7 -8 -17 -12 -23 -8 -6 4 -7 1 -3 -6 6 -9 13 -8 27 5
10 9 19 19 19 21 0 7 -8 2 -20 -12z"/>
<path d="M3580 1230 c-8 -5 -10 -10 -5 -10 6 0 17 5 25 10 8 5 11 10 5 10 -5
0 -17 -5 -25 -10z"/>
<path d="M4666 1223 c-6 -14 -5 -15 5 -6 7 7 10 15 7 18 -3 3 -9 -2 -12 -12z"/>
<path d="M4630 1209 c0 -5 -6 -7 -12 -3 -7 4 -10 3 -5 -1 4 -5 16 -9 27 -10
15 -1 17 1 9 12 -14 16 -19 17 -19 2z"/>
<path d="M4730 1216 c0 -2 8 -10 18 -17 15 -13 16 -12 3 4 -13 16 -21 21 -21
13z"/>
<path d="M3635 1199 c-4 -6 -4 -13 -1 -16 3 -4 6 -1 6 6 0 7 5 9 10 6 6 -3 10
-1 10 4 0 14 -17 14 -25 0z"/>
<path d="M4570 1200 c-8 -5 -10 -10 -5 -10 6 0 17 5 25 10 8 5 11 10 5 10 -5
0 -17 -5 -25 -10z"/>
<path d="M3588 1179 c6 -9 10 -18 7 -21 -3 -3 7 -4 22 -3 16 1 34 -3 41 -8 9
-7 11 -6 6 6 -4 10 -14 15 -27 13 -12 -2 -31 4 -42 13 -17 14 -18 14 -7 0z"/>
<path d="M4593 1165 c0 -14 2 -27 6 -29 3 -2 6 9 6 25 1 16 -2 29 -6 29 -3 0
-6 -11 -6 -25z"/>
<path d="M3870 1176 c0 -2 7 -7 16 -10 8 -3 12 -2 9 4 -6 10 -25 14 -25 6z"/>
<path d="M3550 1160 c0 -5 5 -10 11 -10 5 0 7 5 4 10 -3 6 -8 10 -11 10 -2 0
-4 -4 -4 -10z"/>
<path d="M4646 1138 c3 -5 10 -6 15 -3 13 9 11 12 -6 12 -8 0 -12 -4 -9 -9z"/>
<path d="M4480 1120 c8 -5 20 -10 25 -10 6 0 3 5 -5 10 -8 5 -19 10 -25 10 -5
0 -3 -5 5 -10z"/>
<path d="M4526 1118 c3 -5 9 -7 12 -4 3 3 12 0 21 -6 13 -10 14 -10 4 2 -15
16 -46 23 -37 8z"/>
<path d="M3773 1083 c1 -17 4 -19 14 -11 15 12 18 22 4 14 -5 -4 -11 0 -14 6
-3 7 -4 3 -4 -9z"/>
<path d="M3835 1080 c3 -6 1 -10 -6 -10 -7 0 -10 -3 -6 -6 3 -3 13 -2 22 4 16
8 16 9 1 15 -10 4 -15 3 -11 -3z"/>
<path d="M4530 1079 c0 -5 5 -7 10 -4 6 3 10 8 10 11 0 2 -4 4 -10 4 -5 0 -10
-5 -10 -11z"/>
<path d="M3937 1073 c-4 -3 -7 -11 -7 -17 0 -6 5 -5 12 2 6 6 9 14 7 17 -3 3
-9 2 -12 -2z"/>
<path d="M3695 1060 c-3 -5 -1 -10 4 -10 6 0 11 5 11 10 0 6 -2 10 -4 10 -3 0
-8 -4 -11 -10z"/>
<path d="M3870 1060 c0 -5 5 -10 10 -10 6 0 10 5 10 10 0 6 -4 10 -10 10 -5 0
-10 -4 -10 -10z"/>
<path d="M3963 1052 c-8 -5 -9 -13 -3 -22 8 -13 10 -12 10 3 0 14 5 17 23 12
17 -5 19 -4 7 4 -18 13 -21 13 -37 3z"/>
<path d="M3596 1038 c3 -5 10 -6 15 -3 13 9 11 12 -6 12 -8 0 -12 -4 -9 -9z"/>
<path d="M3720 1040 c-9 -6 -10 -10 -3 -10 6 0 15 5 18 10 8 12 4 12 -15 0z"/>
<path d="M3905 1040 c3 -5 11 -10 16 -10 6 0 7 5 4 10 -3 6 -11 10 -16 10 -6
0 -7 -4 -4 -10z"/>
<path d="M4339 1048 c-5 -18 -6 -38 -1 -34 7 8 12 36 6 36 -2 0 -4 -1 -5 -2z"/>
<path d="M4419 1033 c-13 -16 -12 -17 3 -5 9 8 23 10 29 6 8 -4 9 -3 5 4 -10
17 -21 15 -37 -5z"/>
<path d="M4230 1032 c0 -6 9 -12 20 -15 11 -3 20 -3 20 -1 0 2 -9 8 -20 14
-11 6 -20 7 -20 2z"/>
<path d="M4516 1018 c3 -5 10 -6 15 -3 13 9 11 12 -6 12 -8 0 -12 -4 -9 -9z"/>
</g>
</svg>
